<?xml version="1.0" encoding="UTF-8"?><svg id="uuid-60efddef-cfe1-418c-8a37-c292f226fe1f" xmlns="http://www.w3.org/2000/svg" xmlns:xlink="http://www.w3.org/1999/xlink" viewBox="0 0 279.05 277.74" width="70"><defs><clipPath id="uuid-f62f419a-595a-4cf4-b095-b84ec0ad355e"><path d="m68.34,39.9c-10.03,16.96-21.12,33.56-30.5,49.75-4.52,7.37-8.66,14.13-11.67,19.04l-4.9,7.98,132.21,43.66s-6.95-9.83-16.88-23.88c-4.96-7.02-10.67-15.1-16.63-23.53-16.18-21.9-31.71-44.35-46.91-66.37l-4.71-6.66Z" fill="none" stroke-width="0"/></clipPath><clipPath id="uuid-b55ccc65-ae20-4e8a-8d5d-0c95270688fd"><polygon points="209.87 261.86 256.94 185.08 124.73 141.42 209.87 261.86" fill="none" stroke-width="0"/></clipPath></defs><g id="uuid-1f7436be-cbc7-4f8a-947f-fbc74014e44c"><path d="m139.71,179.66c-18.06,0-32.76-12.93-32.76-28.83s14.69-28.83,32.76-28.83,32.76,12.93,32.76,28.83-14.7,28.83-32.76,28.83Z" fill="#fff" stroke-width="0"/><path d="m139.71,122.37c17.83,0,32.33,12.77,32.33,28.46s-14.5,28.46-32.33,28.46-32.33-12.77-32.33-28.46,14.5-28.46,32.33-28.46m0-.75c-18.33,0-33.19,13.08-33.19,29.21s14.86,29.21,33.19,29.21,33.19-13.08,33.19-29.21-14.86-29.21-33.19-29.21h0Z" stroke-width="0"/><path d="m171.39,62.34l-20.85,60.87c13.01,3.95,22.36,14.82,22.36,27.61,0,16.13-14.86,29.21-33.19,29.21s-33.19-13.08-33.19-29.21c0-13.34,10.16-24.58,24.04-28.08l-19.56-61.13c-28.42,7.29-52.58,25.21-65.97,48.41-3.43,6.16-6.11,12.7-7.93,19.53-1.82,6.83-2.78,13.95-2.78,21.27,0,51.23,47.18,92.77,105.39,92.77s105.39-41.53,105.39-92.77c0-41.52-30.99-76.65-73.71-88.49Z" stroke-width="0"/><path d="m163.88,60.51c2.54.53,5.04,1.15,7.51,1.83L192.38,1.02,91.29,0l19.72,61.61c9.2-2.36,18.84-3.61,28.71-3.56,8.32,0,16.41.85,24.17,2.45Z" stroke-width="0"/><path d="m130.56,122.75l9.73,30.4,10.25-29.93c-3.39-1.03-7.04-1.6-10.83-1.6-3.17,0-6.24.4-9.15,1.13Z" stroke-width="0"/><ellipse cx="139.71" cy="150.82" rx="2.64" ry="2.32" stroke-width="0"/><g opacity=".38"><g clip-path="url(#uuid-f62f419a-595a-4cf4-b095-b84ec0ad355e)"><path d="m139.71,119.13c19.85,0,36.01,14.22,36.01,31.69s-16.15,31.69-36.01,31.69-36.01-14.22-36.01-31.69,16.15-31.69,36.01-31.69h0Zm0-.12c-19.96,0-36.14,14.24-36.14,31.81s16.18,31.81,36.14,31.81,36.14-14.24,36.14-31.81-16.18-31.81-36.14-31.81h0Z" fill="#fff" stroke-width="0"/><path d="m139.71,118.18c20.45,0,37.09,14.64,37.09,32.65s-16.64,32.65-37.09,32.65-37.09-14.64-37.09-32.65,16.64-32.65,37.09-32.65h0Zm0-.12c-20.56,0-37.22,14.67-37.22,32.76s16.66,32.76,37.22,32.76,37.22-14.67,37.22-32.76-16.66-32.76-37.22-32.76h0Z" fill="#fff" stroke-width="0"/><path d="m139.71,117.23c21.05,0,38.17,15.07,38.17,33.6s-17.12,33.6-38.17,33.6-38.17-15.07-38.17-33.6,17.12-33.6,38.17-33.6h0Zm0-.12c-21.15,0-38.3,15.09-38.3,33.71s17.15,33.71,38.3,33.71,38.3-15.09,38.3-33.71-17.15-33.71-38.3-33.71h0Z" fill="#fff" stroke-width="0"/><path d="m139.71,116.28c21.64,0,39.25,15.5,39.25,34.55s-17.61,34.55-39.25,34.55-39.25-15.5-39.25-34.55,17.61-34.55,39.25-34.55h0Zm0-.12c-21.75,0-39.38,15.52-39.38,34.66s17.63,34.66,39.38,34.66,39.38-15.52,39.38-34.66-17.63-34.66-39.38-34.66h0Z" fill="#fff" stroke-width="0"/><path d="m139.71,115.33c22.24,0,40.33,15.92,40.33,35.5s-18.09,35.5-40.33,35.5-40.33-15.92-40.33-35.5,18.09-35.5,40.33-35.5h0Zm0-.12c-22.34,0-40.46,15.94-40.46,35.61s18.11,35.61,40.46,35.61,40.46-15.94,40.46-35.61-18.11-35.61-40.46-35.61h0Z" fill="#fff" stroke-width="0"/><path d="m139.71,114.38c22.83,0,41.41,16.35,41.41,36.45s-18.57,36.45-41.41,36.45-41.41-16.35-41.41-36.45c0-6.7,2.06-12.98,5.66-18.38,3.6-5.4,8.73-9.92,14.86-13.08s13.27-4.98,20.88-4.98h0Zm0-.12c-7.65,0-14.81,1.82-20.97,4.99-6.15,3.17-11.3,7.7-14.9,13.12-3.6,5.42-5.67,11.72-5.67,18.45,0,20.19,18.6,36.56,41.54,36.56s41.54-16.37,41.54-36.56-18.6-36.56-41.54-36.56h0Z" fill="#fff" stroke-width="0"/><path d="m139.71,113.43c23.43,0,42.49,16.78,42.49,37.4s-19.06,37.4-42.49,37.4-42.49-16.78-42.49-37.4c0-6.87,2.12-13.32,5.81-18.86,3.69-5.54,8.96-10.17,15.25-13.42,6.29-3.25,13.62-5.11,21.43-5.11h0Zm0-.12c-7.85,0-15.2,1.87-21.51,5.12-6.31,3.26-11.59,7.9-15.29,13.46-3.7,5.56-5.82,12.03-5.82,18.93,0,20.72,19.08,37.51,42.62,37.51s42.62-16.8,42.62-37.51-19.08-37.51-42.62-37.51h0Z" fill="#fff" stroke-width="0"/><path d="m139.71,112.48c24.02,0,43.57,17.2,43.57,38.35s-19.54,38.35-43.57,38.35-43.57-17.2-43.57-38.35c0-7.05,2.17-13.66,5.96-19.34,3.79-5.68,9.18-10.43,15.64-13.76,6.45-3.33,13.96-5.24,21.97-5.24h0Zm0-.12c-8.04,0-15.58,1.91-22.06,5.25-6.47,3.34-11.88,8.1-15.68,13.8-3.79,5.7-5.97,12.33-5.97,19.41,0,21.24,19.56,38.46,43.7,38.46s43.7-17.22,43.7-38.46-19.56-38.46-43.7-38.46h0Z" fill="#fff" stroke-width="0"/><path d="m139.71,111.53c24.62,0,44.65,17.63,44.65,39.3s-20.03,39.3-44.65,39.3-44.65-17.63-44.65-39.3c0-5.42,1.25-10.58,3.51-15.28,2.26-4.7,5.54-8.93,9.58-12.49,4.04-3.56,8.85-6.44,14.19-8.43,5.34-1.99,11.21-3.09,17.36-3.09h0Zm0-.12c-6.18,0-12.07,1.1-17.43,3.1-5.36,1.99-10.18,4.88-14.23,8.45-4.05,3.57-7.33,7.81-9.6,12.53-2.27,4.72-3.52,9.9-3.52,15.34,0,21.77,20.05,39.41,44.78,39.41s44.78-17.65,44.78-39.41-20.05-39.41-44.78-39.41h0Z" fill="#fff" stroke-width="0"/><path d="m139.71,110.57c25.21,0,45.72,18.06,45.72,40.25s-20.51,40.25-45.72,40.25-45.72-18.06-45.72-40.25c0-5.55,1.28-10.84,3.6-15.65s5.67-9.15,9.81-12.8c4.14-3.64,9.07-6.6,14.54-8.63,5.47-2.04,11.48-3.17,17.78-3.17h0Zm0-.12c-6.33,0-12.36,1.13-17.85,3.17-5.49,2.04-10.43,5-14.58,8.65-4.15,3.65-7.51,8-9.83,12.83-2.32,4.83-3.6,10.14-3.6,15.71,0,22.29,20.53,40.36,45.86,40.36s45.86-18.07,45.86-40.36-20.53-40.36-45.86-40.36h0Z" fill="#fff" stroke-width="0"/><path d="m139.71,109.62c25.81,0,46.8,18.48,46.8,41.2s-21,41.2-46.8,41.2-46.8-18.48-46.8-41.2c0-5.68,1.31-11.09,3.68-16.02,2.37-4.93,5.8-9.37,10.04-13.1,9.35-7.25,20.44-12.13,33.08-12.08h0Zm0-.12c-12.64.07-23.73,4.95-33.19,12.1-4.25,3.74-7.68,8.19-10.06,13.13-2.38,4.94-3.69,10.38-3.69,16.08,0,22.82,21.01,41.31,46.94,41.31s46.94-18.5,46.94-41.31-21.01-41.31-46.94-41.31h0Z" fill="#fff" stroke-width="0"/><path d="m139.71,108.67c26.4,0,47.88,18.91,47.88,42.15s-21.48,42.15-47.88,42.15-47.88-18.91-47.88-42.15c0-5.81,1.34-11.35,3.77-16.39,2.43-5.04,5.94-9.58,10.27-13.4,7.9-8.53,21.21-12.43,33.84-12.36h0Zm0-.12c-12.64.04-25.94,3.95-33.95,12.38-4.34,3.83-7.86,8.38-10.29,13.44-2.43,5.06-3.77,10.62-3.77,16.45,0,23.34,21.5,42.26,48.02,42.26s48.02-18.92,48.02-42.26-21.5-42.26-48.02-42.26h0Z" fill="#fff" stroke-width="0"/><path d="m139.71,107.72c27,0,48.96,19.33,48.96,43.1s-21.97,43.1-48.96,43.1-48.96-19.33-48.96-43.1c0-5.94,1.37-11.61,3.85-16.76,2.48-5.15,6.07-9.8,10.5-13.7,8.66-7.85,20.86-12.73,34.61-12.64h0Zm0-.12c-13.75.02-25.94,4.9-34.72,12.66-4.44,3.91-8.04,8.57-10.52,13.74-2.48,5.17-3.86,10.85-3.86,16.82,0,23.87,21.98,43.22,49.1,43.22s49.1-19.35,49.1-43.22-21.98-43.22-49.1-43.22h0Z" fill="#fff" stroke-width="0"/><path d="m139.71,106.77c27.59,0,50.04,19.76,50.04,44.05s-22.45,44.05-50.04,44.05-50.04-19.76-50.04-44.05c0-6.07,1.4-11.86,3.94-17.13s6.2-10.02,10.73-14c9.43-8.16,22.73-13.04,35.37-12.92h0Zm0-.12c-13.75,0-25.94,5.85-35.48,12.93-4.54,4-8.21,8.76-10.75,14.04-2.54,5.28-3.94,11.09-3.94,17.19,0,24.39,22.46,44.17,50.18,44.17s50.18-19.77,50.18-44.17-22.46-44.17-50.18-44.17h0Z" fill="#fff" stroke-width="0"/><path d="m139.71,105.82c28.19,0,51.12,20.19,51.12,45s-22.93,45-51.12,45-51.12-20.19-51.12-45c0-6.2,1.43-12.12,4.02-17.5s6.34-10.23,10.97-14.31c9.08-8.46,22.39-13.34,36.13-13.19h0Zm0-.12c-13.75-.03-27.05,4.85-36.24,13.21-4.64,4.08-8.39,8.94-10.98,14.34-2.59,5.4-4.03,11.33-4.03,17.56,0,24.92,22.95,45.12,51.26,45.12s51.26-20.2,51.26-45.12-22.95-45.12-51.26-45.12h0Z" fill="#fff" stroke-width="0"/><path d="m139.71,104.87c28.78,0,52.2,20.61,52.2,45.95s-23.42,45.95-52.2,45.95-52.2-20.61-52.2-45.95c0-6.33,1.46-12.37,4.11-17.87,2.65-5.5,6.47-10.45,11.2-14.61,9.84-7.79,22.04-14.62,36.9-13.47h0Zm0-.12c-13.75-.06-27.05,4.82-37.01,13.49-4.73,4.17-8.57,9.13-11.21,14.64-2.65,5.51-4.11,11.57-4.11,17.93,0,25.44,23.43,46.07,52.33,46.07s52.33-20.62,52.33-46.07-23.43-46.07-52.33-46.07h0Z" fill="#fff" stroke-width="0"/><path d="m139.71,103.92c29.38,0,53.28,21.04,53.28,46.9s-23.9,46.9-53.28,46.9-53.28-21.04-53.28-46.9c0-6.47,1.49-12.63,4.19-18.24s6.61-10.66,11.43-14.91c9.5-8.09,22.81-12.97,37.66-13.75h0Zm0-.12c-14.85-.09-28.16,5.77-37.77,13.77-4.83,4.26-8.74,9.32-11.45,14.95-2.7,5.62-4.2,11.81-4.2,18.3,0,25.97,23.91,47.02,53.41,47.02s53.41-21.05,53.41-47.02-23.91-47.02-53.41-47.02h0Z" fill="#fff" stroke-width="0"/><path d="m139.71,102.97c7.49,0,14.64,1.34,21.14,3.77,19.5,7.27,33.22,24.3,33.22,44.08,0,26.39-24.39,47.85-54.36,47.85s-54.36-21.47-54.36-47.85c0-6.6,1.52-12.89,4.28-18.61,2.75-5.72,6.74-10.88,11.66-15.22,10.26-8.4,23.57-13.28,38.42-14.03h0Zm0-.12c-13.75.87-29.27,4.77-38.54,14.05-4.93,4.34-8.92,9.51-11.68,15.25-2.76,5.74-4.28,12.05-4.28,18.67,0,26.49,24.4,47.97,54.49,47.97s54.49-21.48,54.49-47.97c0-19.87-13.72-36.92-33.28-44.2-6.52-2.43-13.69-3.77-21.21-3.77h0Z" fill="#fff" stroke-width="0"/><path d="m139.71,102.02c7.64,0,14.93,1.37,21.56,3.84,19.89,7.42,33.88,24.78,33.88,44.96,0,26.91-24.87,48.8-55.44,48.8s-55.44-21.89-55.44-48.8c0-6.73,1.55-13.14,4.36-18.98,2.81-5.84,6.87-11.1,11.89-15.52,9.92-8.7,24.33-13.58,39.19-14.31h0Zm0-.12c-14.85.84-29.27,5.72-39.3,14.32-5.03,4.43-9.09,9.7-11.91,15.55-2.81,5.85-4.37,12.29-4.37,19.04,0,27.02,24.88,48.92,55.57,48.92s55.57-21.9,55.57-48.92c0-20.26-14-37.65-33.94-45.07-6.65-2.48-13.96-3.84-21.63-3.84h0Z" fill="#fff" stroke-width="0"/><path d="m139.71,101.07c5.03,0,9.96.58,14.7,1.69,9.47,2.23,18.15,6.62,25.27,12.88,10.68,9.4,16.55,21.89,16.55,35.18s-5.88,25.78-16.55,35.18c-10.68,9.4-24.87,14.57-39.97,14.57s-29.29-5.18-39.97-14.57c-10.68-9.4-16.55-21.89-16.55-35.18,0-4.43.65-8.77,1.92-12.94,1.27-4.17,3.15-8.16,5.6-11.9,9.75-15.43,28.6-25.19,49-24.92h0Zm0-.12c-14.85.81-29.27,5.69-40.06,14.6-5.12,4.52-9.27,9.89-12.14,15.86-2.87,5.97-4.45,12.53-4.45,19.41,0,27.54,25.36,49.87,56.65,49.87s56.65-22.33,56.65-49.87c0-20.66-14.27-38.38-34.6-45.95-6.78-2.52-14.23-3.92-22.05-3.92h0Z" fill="#fff" stroke-width="0"/><path d="m139.71,100.12c5.13,0,10.16.59,14.98,1.72,9.65,2.27,18.5,6.74,25.75,13.13,10.88,9.58,16.87,22.31,16.87,35.85s-5.99,26.28-16.87,35.85c-10.88,9.58-25.34,14.85-40.73,14.85s-29.85-5.27-40.73-14.85c-10.88-9.58-16.87-22.31-16.87-35.85,0-4.51.67-8.94,1.96-13.19s3.21-8.32,5.71-12.12c11.8-14.96,28.43-25.7,49.94-25.39h0Zm0-.12c-15.96-.19-29.27,5.67-40.83,14.88-5.22,4.6-9.45,10.08-12.37,16.16-2.92,6.08-4.54,12.76-4.54,19.78,0,28.07,25.85,50.82,57.73,50.82s57.73-22.75,57.73-50.82c0-21.05-14.54-39.11-35.26-46.82-6.91-2.57-14.5-3.99-22.47-3.99h0Z" fill="#fff" stroke-width="0"/><path d="m139.71,99.17c5.22,0,10.35.6,15.26,1.75,9.83,2.31,18.84,6.87,26.23,13.37,11.08,9.76,17.19,22.73,17.19,36.52s-6.1,26.77-17.19,36.52c-11.08,9.76-25.82,15.13-41.49,15.13s-30.41-5.37-41.49-15.13c-11.08-9.76-17.19-22.73-17.19-36.52,0-4.6.68-9.11,1.99-13.43,1.31-4.33,3.27-8.47,5.81-12.35,9.41-16.44,30.48-25.22,50.88-25.87h0Zm0-.12c-22.62.76-47.01,12.48-54.19,31.62-2.98,6.19-4.62,13-4.62,20.15,0,28.59,26.33,51.77,58.81,51.77s58.81-23.18,58.81-51.77c0-21.44-14.81-39.84-35.92-47.7-7.04-2.62-14.77-4.07-22.89-4.07h0Z" fill="#fff" stroke-width="0"/><path d="m139.71,98.22c5.32,0,10.54.61,15.54,1.79,10.01,2.36,19.19,7,26.72,13.62,11.29,9.94,17.5,23.15,17.5,37.2s-6.22,27.26-17.5,37.2c-11.29,9.94-26.29,15.41-42.26,15.41s-30.97-5.47-42.26-15.41c-11.29-9.94-17.5-23.15-17.5-37.2,0-4.68.69-9.27,2.03-13.68,1.34-4.41,3.33-8.63,5.92-12.58,10.34-16.94,31.41-25.72,51.81-26.34h0Zm0-.12c-23.73.74-47.01,11.47-55.19,32.2-3.03,6.31-4.71,13.24-4.71,20.52,0,29.12,26.81,52.72,59.89,52.72s59.89-23.6,59.89-52.72c0-21.84-15.08-40.57-36.58-48.58-7.17-2.67-15.04-4.14-23.31-4.14h0Z" fill="#fff" stroke-width="0"/><path d="m139.71,97.27c5.42,0,10.73.62,15.82,1.82,10.19,2.4,19.54,7.12,27.2,13.87,11.49,10.11,17.82,23.56,17.82,37.87s-6.33,27.75-17.82,37.87c-11.49,10.11-26.77,15.69-43.02,15.69s-31.53-5.57-43.02-15.69c-11.49-10.11-17.82-23.56-17.82-37.87,0-4.77.7-9.44,2.07-13.93s3.39-8.79,6.03-12.81c10.17-16.46,31.24-26.22,52.75-26.82h0Zm0-.12c-24.83-.27-47.01,13.4-56.18,32.78-3.09,6.42-4.79,13.48-4.79,20.89,0,29.64,27.3,53.67,60.97,53.67s60.97-24.03,60.97-53.67c0-22.23-15.36-41.3-37.24-49.45-7.29-2.72-15.31-4.22-23.73-4.22h0Z" fill="#fff" stroke-width="0"/><path d="m139.71,96.32c5.51,0,10.92.63,16.1,1.85,10.37,2.44,19.88,7.25,27.68,14.11,11.7,10.29,18.14,23.98,18.14,38.54s-6.44,28.25-18.14,38.54c-11.7,10.29-27.24,15.96-43.78,15.96s-32.09-5.67-43.78-15.96c-11.7-10.29-18.14-23.98-18.14-38.54,0-4.85.72-9.61,2.1-14.17,1.39-4.57,3.45-8.94,6.13-13.03,11.11-16.96,32.18-26.73,53.68-27.3h0Zm0-.12c-24.83.69-47.01,13.38-57.18,33.36-3.14,6.53-4.88,13.72-4.88,21.26,0,30.17,27.78,54.62,62.05,54.62s62.05-24.45,62.05-54.62c0-22.62-15.63-42.04-37.9-50.33-7.42-2.76-15.59-4.29-24.15-4.29h0Z" fill="#fff" stroke-width="0"/><path d="m139.71,95.37c5.61,0,11.11.64,16.38,1.88,10.56,2.48,20.23,7.38,28.16,14.36,11.9,10.47,18.45,24.4,18.45,39.21s-6.55,28.74-18.45,39.21c-11.9,10.47-27.72,16.24-44.55,16.24s-32.65-5.77-44.55-16.24c-11.9-10.47-18.45-24.4-18.45-39.21,0-4.94.73-9.78,2.14-14.42s3.51-9.1,6.24-13.26c10.93-17.47,32-27.23,54.62-27.77h0Zm0-.12c-20.4.66-40.36,8.47-50.95,22.75-3.83,4.6-6.87,9.74-8.96,15.26-2.09,5.52-3.22,11.43-3.22,17.56,0,30.69,28.27,55.57,63.13,55.57s63.13-24.88,63.13-55.57c0-24.55-18.09-45.39-43.18-52.74-6.27-1.84-12.98-2.83-19.96-2.83h0Z" fill="#fff" stroke-width="0"/><path d="m139.71,94.42c5.71,0,11.3.65,16.67,1.92,10.74,2.53,20.58,7.5,28.65,14.6,12.1,10.65,18.77,24.82,18.77,39.88s-6.67,29.23-18.77,39.88c-12.1,10.65-28.19,16.52-45.31,16.52s-33.21-5.87-45.31-16.52c-12.1-10.65-18.77-24.82-18.77-39.88,0-5.02.74-9.94,2.18-14.67,1.44-4.73,3.57-9.25,6.35-13.49,10.76-17.97,32.94-27.73,55.56-28.25h0Zm0-.12c-20.4.63-40.36,8.44-51.82,23.14-3.89,4.68-6.99,9.9-9.11,15.52-2.12,5.62-3.27,11.62-3.27,17.86,0,31.22,28.75,56.52,64.21,56.52s64.21-25.31,64.21-56.52c0-24.97-18.4-46.16-43.92-53.64-6.38-1.87-13.2-2.88-20.3-2.88h0Z" fill="#fff" stroke-width="0"/><path d="m139.71,93.47c5.8,0,11.49.66,16.95,1.95,10.92,2.57,20.92,7.63,29.13,14.85,12.31,10.83,19.08,25.24,19.08,40.56s-6.78,29.72-19.08,40.56c-12.31,10.83-28.67,16.8-46.07,16.8s-33.77-5.97-46.07-16.8c-12.31-10.83-19.08-25.24-19.08-40.56,0-5.11.75-10.11,2.21-14.92s3.63-9.41,6.45-13.72c12.81-16.52,32.77-29.21,56.49-28.72h0Zm0-.12c-21.51.61-39.25,9.39-52.7,23.53-3.96,4.76-7.11,10.07-9.27,15.78-2.16,5.71-3.33,11.82-3.33,18.17,0,31.74,29.23,57.47,65.29,57.47s65.29-25.73,65.29-57.47c0-25.39-18.71-46.94-44.65-54.54-6.49-1.9-13.43-2.93-20.64-2.93h0Z" fill="#fff" stroke-width="0"/><path d="m139.71,92.52c5.9,0,11.68.68,17.23,1.98,11.1,2.61,21.27,7.76,29.61,15.1,12.51,11.01,19.4,25.65,19.4,41.23s-6.89,30.22-19.4,41.23c-12.51,11.01-29.14,17.08-46.84,17.08s-34.33-6.06-46.84-17.08c-12.51-11.01-19.4-25.65-19.4-41.23,0-5.19.77-10.28,2.25-15.16,1.48-4.88,3.69-9.57,6.56-13.94,11.52-17.99,33.7-28.73,57.43-29.2h0Zm0-.12c-21.51.58-41.47,8.39-53.57,23.92-4.02,4.84-7.22,10.24-9.42,16.04-2.2,5.8-3.38,12.01-3.38,18.47,0,32.27,29.72,58.42,66.37,58.42s66.37-26.16,66.37-58.42c0-25.81-19.02-47.71-45.39-55.44-6.59-1.93-13.65-2.98-20.98-2.98h0Z" fill="#fff" stroke-width="0"/><path d="m139.71,91.57c6,0,11.87.69,17.51,2.01,11.28,2.66,21.62,7.88,30.09,15.34,12.71,11.19,19.72,26.07,19.72,41.9s-7,30.71-19.72,41.9c-12.71,11.19-29.62,17.36-47.6,17.36s-34.89-6.16-47.6-17.36c-12.71-11.19-19.72-26.07-19.72-41.9,0-5.28.78-10.45,2.29-15.41,1.51-4.96,3.75-9.72,6.67-14.17,10.24-18.5,34.64-29.23,58.36-29.68h0Zm0-.12c-21.51.56-41.47,9.34-54.44,24.3-4.09,4.92-7.34,10.4-9.57,16.3-2.23,5.9-3.44,12.21-3.44,18.77,0,32.79,30.2,59.37,67.45,59.37s67.45-26.58,67.45-59.37c0-26.23-19.33-48.49-46.13-56.34-6.7-1.96-13.87-3.03-21.32-3.03h0Z" fill="#fff" stroke-width="0"/><path d="m139.71,90.62c6.09,0,12.06.7,17.79,2.05,11.46,2.7,21.96,8.01,30.58,15.59,12.92,11.37,20.03,26.49,20.03,42.57s-7.11,31.2-20.03,42.57c-12.92,11.37-30.1,17.63-48.36,17.63s-35.45-6.26-48.36-17.63c-12.92-11.37-20.03-26.49-20.03-42.57,0-5.36.79-10.61,2.32-15.66,1.53-5.04,3.81-9.88,6.77-14.4,12.29-18.02,34.47-30.71,59.3-30.15h0Zm0-.12c-21.51.53-43.69,8.34-55.31,24.69-4.15,5-7.46,10.57-9.72,16.56-2.27,5.99-3.49,12.4-3.49,19.07,0,33.31,30.68,60.32,68.53,60.32s68.53-27.01,68.53-60.32c0-26.65-19.64-49.27-46.87-57.25-6.81-1.99-14.09-3.08-21.66-3.08h0Z" fill="#fff" stroke-width="0"/><path d="m139.71,89.66c6.19,0,12.25.71,18.07,2.08,11.64,2.74,22.31,8.13,31.06,15.84,13.12,11.55,20.35,26.91,20.35,43.24s-7.23,31.69-20.35,43.24c-13.12,11.55-30.57,17.91-49.13,17.91s-36.01-6.36-49.13-17.91c-13.12-11.55-20.35-26.91-20.35-43.24,0-5.45.8-10.78,2.36-15.9s3.87-10.03,6.88-14.63c12.11-18.52,35.4-31.21,60.24-30.63h0Zm0-.12c-21.51,1.48-43.69,8.32-56.18,25.08-4.22,5.07-7.58,10.74-9.88,16.83-2.3,6.09-3.55,12.6-3.55,19.37,0,33.84,31.17,61.27,69.61,61.27s69.61-27.43,69.61-61.27c0-27.07-19.95-50.04-47.61-58.15-6.92-2.03-14.31-3.12-22-3.13h0Z" fill="#fff" stroke-width="0"/><path d="m139.71,88.71c6.28,0,12.44.72,18.35,2.11,11.82,2.78,22.66,8.26,31.54,16.08,13.33,11.73,20.67,27.33,20.67,43.92s-7.34,32.19-20.67,43.92c-13.33,11.73-31.05,18.19-49.89,18.19s-36.57-6.46-49.89-18.19c-13.33-11.73-20.67-27.33-20.67-43.92,0-5.53.82-10.95,2.4-16.15,1.58-5.2,3.93-10.19,6.99-14.85,13.05-18.05,35.23-31.72,61.17-31.1h0Zm0-.12c-22.62-.5-43.69,10.24-57.05,25.47-4.28,5.15-7.69,10.91-10.03,17.09-2.34,6.18-3.6,12.79-3.6,19.67,0,34.36,31.65,62.22,70.69,62.22s70.69-27.86,70.69-62.22c0-27.49-20.26-50.82-48.35-59.05-7.02-2.06-14.54-3.17-22.35-3.17h0Z" fill="#fff" stroke-width="0"/><path d="m139.71,87.76c6.38,0,12.63.73,18.63,2.14,12,2.83,23,8.39,32.02,16.33,13.53,11.91,20.98,27.74,20.98,44.59s-7.45,32.68-20.98,44.59c-13.53,11.91-31.52,18.47-50.66,18.47s-37.12-6.56-50.66-18.47c-13.53-11.91-20.98-27.74-20.98-44.59,0-5.61.83-11.12,2.43-16.4,1.61-5.28,3.99-10.34,7.09-15.08,12.88-18.55,36.17-32.22,62.11-31.58h0Zm0-.12c-22.62-.52-44.8,10.22-57.92,25.86-4.35,5.23-7.81,11.07-10.18,17.35-2.37,6.28-3.66,12.99-3.66,19.97,0,34.89,32.13,63.17,71.77,63.17s71.77-28.28,71.77-63.17c0-27.91-20.56-51.6-49.08-59.95-7.13-2.09-14.76-3.22-22.69-3.22h0Z" fill="#fff" stroke-width="0"/><path d="m139.71,86.81c6.48,0,12.82.74,18.91,2.18,12.18,2.87,23.35,8.51,32.51,16.57,13.73,12.09,21.3,28.16,21.3,45.26s-7.56,33.17-21.3,45.26c-13.73,12.09-32,18.75-51.42,18.75s-37.68-6.66-51.42-18.75c-13.73-12.09-21.3-28.16-21.3-45.26,0-5.7.84-11.28,2.47-16.65,1.63-5.36,4.05-10.5,7.2-15.31,11.6-19.05,37.1-32.72,63.04-32.06h0Zm0-.12c-23.72-.55-44.8,11.17-58.8,26.25-4.41,5.31-7.93,11.24-10.34,17.61-2.41,6.37-3.71,13.19-3.71,20.27,0,35.41,32.62,64.12,72.85,64.12s72.85-28.71,72.85-64.12c0-28.33-20.87-52.37-49.82-60.85-7.24-2.12-14.98-3.27-23.03-3.27h0Z" fill="#fff" stroke-width="0"/><path d="m139.71,85.86c6.57,0,13.01.75,19.19,2.21,12.36,2.91,23.7,8.64,32.99,16.82,13.94,12.27,21.61,28.58,21.61,45.93s-7.68,33.66-21.61,45.93c-13.94,12.27-32.47,19.03-52.18,19.03s-38.24-6.76-52.18-19.03c-13.94-12.27-21.61-28.58-21.61-45.93,0-5.78.85-11.45,2.51-16.89s4.11-10.66,7.31-15.54c12.53-19.55,38.04-32.24,63.98-32.53h0Zm0-.12c-23.72-.57-45.9,10.17-59.67,26.64-4.48,5.39-8.05,11.41-10.49,17.87-2.44,6.46-3.77,13.38-3.77,20.57,0,35.94,33.1,65.07,73.93,65.07s73.93-29.13,73.93-65.07c0-28.75-21.18-53.15-50.56-61.76-7.34-2.15-15.2-3.32-23.37-3.32h0Z" fill="#fff" stroke-width="0"/><path d="m139.71,84.91c6.67,0,13.2.76,19.48,2.24,12.54,2.95,24.04,8.77,33.47,17.07,14.14,12.45,21.93,29,21.93,46.6s-7.79,34.16-21.93,46.6c-14.14,12.45-32.95,19.3-52.95,19.3s-38.8-6.86-52.95-19.3c-14.14-12.45-21.93-29-21.93-46.6,0-5.87.87-11.62,2.54-17.14,1.68-5.52,4.17-10.81,7.41-15.76,12.36-20.06,38.97-33.72,64.92-33.01h0Zm0-.12c-23.72-.6-47.01,10.14-60.54,27.03-4.55,5.47-8.16,11.57-10.64,18.13-2.48,6.56-3.82,13.58-3.82,20.87,0,36.46,33.58,66.02,75.01,66.02s75.01-29.56,75.01-66.02c0-29.17-21.49-53.92-51.3-62.66-7.45-2.18-15.42-3.37-23.71-3.37h0Z" fill="#fff" stroke-width="0"/><path d="m139.71,83.96c6.76,0,13.39.78,19.76,2.27,12.73,3,24.39,8.89,33.96,17.31,14.35,12.63,22.25,29.42,22.25,47.28s-7.9,34.65-22.25,47.28c-14.35,12.63-33.42,19.58-53.71,19.58s-39.36-6.95-53.71-19.58c-14.35-12.63-22.25-29.42-22.25-47.28,0-5.95.88-11.79,2.58-17.39s4.23-10.97,7.52-15.99c13.29-19.58,38.8-34.22,65.85-33.48h0Zm0-.12c-23.72.35-48.12,10.11-61.41,27.42-4.61,5.55-8.28,11.74-10.8,18.39-2.52,6.65-3.88,13.77-3.88,21.17,0,36.99,34.07,66.97,76.09,66.97s76.09-29.99,76.09-66.97c0-29.59-21.8-54.7-52.04-63.56-7.56-2.21-15.65-3.41-24.05-3.42h0Z" fill="#fff" stroke-width="0"/><path d="m139.71,83.01c6.86,0,13.58.79,20.04,2.31,12.91,3.04,24.74,9.02,34.44,17.56,14.55,12.81,22.56,29.84,22.56,47.95s-8.01,35.14-22.56,47.95c-14.55,12.81-33.9,19.86-54.47,19.86s-39.92-7.05-54.47-19.86c-14.55-12.81-22.56-29.84-22.56-47.95,0-6.04.89-11.95,2.62-17.63,1.73-5.68,4.29-11.12,7.63-16.22,13.12-20.08,38.63-34.72,66.79-33.96h0Zm0-.12c-25.94-.65-47.01,12.04-62.28,27.8-4.68,5.63-8.4,11.91-10.95,18.65-2.55,6.75-3.93,13.97-3.93,21.47,0,37.51,34.55,67.92,77.17,67.92s77.17-30.41,77.17-67.92c0-30.01-22.11-55.48-52.78-64.46-7.67-2.25-15.87-3.46-24.39-3.47h0Z" fill="#fff" stroke-width="0"/><path d="m139.71,82.06c6.96,0,13.77.8,20.32,2.34,13.09,3.08,25.08,9.15,34.92,17.8,14.75,12.99,22.88,30.25,22.88,48.62s-8.13,35.63-22.88,48.62c-14.75,12.99-34.37,20.14-55.24,20.14s-40.48-7.15-55.24-20.14c-14.75-12.99-22.88-30.25-22.88-48.62,0-6.12.9-12.12,2.65-17.88s4.35-11.28,7.74-16.44c14.06-20.58,39.56-35.23,67.72-34.44h0Zm0-.12c-24.83-.67-49.23,11.04-63.15,28.19-4.74,5.71-8.51,12.07-11.1,18.92-2.59,6.84-3.99,14.16-3.99,21.77,0,38.04,35.03,68.88,78.25,68.88s78.25-30.84,78.25-68.88c0-30.43-22.42-56.25-53.52-65.36-7.77-2.28-16.09-3.51-24.73-3.51h0Z" fill="#fff" stroke-width="0"/><path d="m139.71,81.11c7.05,0,13.96.81,20.6,2.37,13.27,3.12,25.43,9.27,35.4,18.05,14.96,13.17,23.2,30.67,23.2,49.29s-8.24,36.13-23.2,49.29c-14.96,13.17-34.85,20.42-56,20.42s-41.04-7.25-56-20.42c-14.96-13.17-23.2-30.67-23.2-49.29,0-6.21.92-12.29,2.69-18.13s4.41-11.44,7.84-16.67c13.89-20.11,39.39-35.73,68.66-34.91h0Zm0-.12c-24.83.28-50.34,11.01-64.02,28.58-4.81,5.78-8.63,12.24-11.26,19.18-2.62,6.94-4.04,14.36-4.04,22.07,0,38.56,35.52,69.83,79.33,69.83s79.33-31.26,79.33-69.83c0-30.85-22.73-57.03-54.25-66.27-7.88-2.31-16.31-3.56-25.08-3.56h0Z" fill="#fff" stroke-width="0"/><path d="m139.71,80.16c7.15,0,14.15.82,20.88,2.4,13.45,3.17,25.78,9.4,35.89,18.3,15.16,13.35,23.51,31.09,23.51,49.96s-8.35,36.62-23.51,49.96c-15.16,13.35-35.32,20.7-56.76,20.7s-41.6-7.35-56.76-20.7c-15.16-13.35-23.51-31.09-23.51-49.96,0-6.29.93-12.46,2.73-18.38,1.8-5.92,4.47-11.59,7.95-16.9,13.71-21.59,40.33-36.23,69.6-35.39h0Zm0-.12c-28.16-.73-55.88,13.92-69.43,35.05-3.49,5.25-6.23,10.92-8.1,16.91-1.87,5.99-2.87,12.3-2.87,18.82,0,39.09,36,70.78,80.41,70.78s80.41-31.69,80.41-70.78c0-32.57-25-60.01-59.03-68.25-6.81-1.65-13.97-2.53-21.38-2.53h0Z" fill="#fff" stroke-width="0"/><path d="m139.71,79.21c7.25,0,14.35.83,21.16,2.44,13.63,3.21,26.12,9.53,36.37,18.54,15.37,13.53,23.83,31.51,23.83,50.64s-8.46,37.11-23.83,50.64c-15.37,13.53-35.8,20.97-57.53,20.97s-42.16-7.45-57.53-20.97c-15.37-13.53-23.83-31.51-23.83-50.64,0-6.38.94-12.62,2.76-18.62s4.53-11.75,8.06-17.13c13.54-22.09,41.26-35.76,70.53-35.86h0Zm0-.12c-28.16-.75-56.99,13.89-70.36,35.53-3.53,5.32-6.32,11.07-8.21,17.14-1.9,6.07-2.91,12.47-2.91,19.07,0,39.61,36.48,71.73,81.49,71.73s81.49-32.11,81.49-71.73c0-33.01-25.34-60.81-59.82-69.16-6.9-1.67-14.16-2.56-21.66-2.57h0Z" fill="#fff" stroke-width="0"/><path d="m139.71,78.26c7.34,0,14.54.84,21.44,2.47,13.81,3.25,26.47,9.65,36.85,18.79,15.57,13.7,24.14,31.93,24.14,51.31s-8.57,37.6-24.14,51.31c-15.57,13.7-36.27,21.25-58.29,21.25s-42.72-7.55-58.29-21.25c-15.57-13.7-24.14-31.93-24.14-51.31,0-6.46.95-12.79,2.8-18.87,1.85-6.08,4.59-11.9,8.16-17.35,15.58-21.61,42.2-37.23,71.47-36.34h0Zm0-.12c-29.27-.78-56.99,13.86-71.29,36-3.58,5.39-6.4,11.21-8.32,17.36-1.92,6.15-2.95,12.63-2.95,19.32,0,40.14,36.97,72.68,82.57,72.68s82.57-32.54,82.57-72.68c0-33.45-25.67-61.62-60.62-70.08-6.99-1.69-14.35-2.6-21.95-2.6h0Z" fill="#fff" stroke-width="0"/><path d="m139.71,77.31c7.44,0,14.73.85,21.72,2.5,13.99,3.29,26.82,9.78,37.33,19.03,15.77,13.88,24.46,32.34,24.46,51.98s-8.69,38.1-24.46,51.98c-15.77,13.88-36.75,21.53-59.05,21.53s-43.28-7.65-59.05-21.53c-15.77-13.88-24.46-32.34-24.46-51.98,0-6.55.97-12.96,2.84-19.12,1.87-6.16,4.65-12.06,8.27-17.58,14.3-22.12,43.14-36.76,72.4-36.82h0Zm0-.12c-30.38-.8-56.99,14.82-72.23,36.47-3.63,5.46-6.48,11.36-8.43,17.59-1.95,6.23-2.99,12.8-2.99,19.57,0,40.66,37.45,73.63,83.65,73.63s83.65-32.96,83.65-73.63c0-33.89-26.01-62.43-61.41-71-7.08-1.71-14.54-2.63-22.24-2.63h0Z" fill="#fff" stroke-width="0"/><path d="m139.71,76.36c7.53,0,14.92.86,22,2.53,14.17,3.34,27.16,9.9,37.82,19.28,15.98,14.06,24.78,32.76,24.78,52.65s-8.8,38.59-24.78,52.65c-15.98,14.06-37.22,21.81-59.82,21.81s-43.84-7.75-59.82-21.81c-15.98-14.06-24.78-32.76-24.78-52.65,0-6.63.98-13.13,2.87-19.36,1.9-6.24,4.71-12.22,8.38-17.81,14.13-22.62,42.96-37.26,73.34-37.29h0Zm0-.12c-30.38.15-59.21,14.79-73.16,36.94-3.67,5.53-6.57,11.51-8.54,17.82-1.97,6.31-3.03,12.96-3.03,19.83,0,41.19,37.93,74.58,84.73,74.58s84.73-33.39,84.73-74.58c0-34.32-26.34-63.23-62.2-71.91-7.17-1.74-14.72-2.66-22.53-2.67h0Z" fill="#fff" stroke-width="0"/><path d="m139.71,75.41c7.63,0,15.11.88,22.28,2.57,14.35,3.38,27.51,10.03,38.3,19.53,16.18,14.24,25.09,33.18,25.09,53.32s-8.91,39.08-25.09,53.32c-16.18,14.24-37.7,22.09-60.58,22.09s-44.4-7.84-60.58-22.09c-16.18-14.24-25.09-33.18-25.09-53.32,0-6.71.99-13.29,2.91-19.61,1.92-6.32,4.77-12.37,8.48-18.04,15.07-22.14,42.79-37.76,74.28-37.77h0Zm0-.12c-30.38.12-59.21,14.76-74.09,37.41-3.72,5.6-6.65,11.65-8.65,18.05-2,6.39-3.07,13.13-3.07,20.08,0,41.71,38.42,75.53,85.81,75.53s85.81-33.81,85.81-75.53c0-34.76-26.68-64.04-62.99-72.83-7.26-1.76-14.91-2.7-22.81-2.7h0Z" fill="#fff" stroke-width="0"/><path d="m139.71,74.46c7.73,0,15.3.89,22.56,2.6,14.53,3.42,27.86,10.16,38.78,19.77,16.39,14.42,25.41,33.6,25.41,54s-9.02,39.57-25.41,54c-16.39,14.42-38.17,22.37-61.34,22.37s-44.96-7.94-61.34-22.37c-16.39-14.42-25.41-33.6-25.41-54,0-6.8,1-13.46,2.95-19.86,1.94-6.4,4.83-12.53,8.59-18.26,14.89-23.62,44.84-38.26,75.21-38.24h0Zm0-.12c-30.38.1-60.32,14.74-75.02,37.88-3.77,5.67-6.73,11.8-8.76,18.27-2.02,6.47-3.1,13.29-3.1,20.33,0,42.24,38.9,76.48,86.88,76.48s86.88-34.24,86.88-76.48c0-35.2-27.01-64.84-63.79-73.75-7.35-1.78-15.1-2.73-23.1-2.74h0Z" fill="#fff" stroke-width="0"/><path d="m139.71,73.51c7.82,0,15.49.9,22.85,2.63,14.72,3.46,28.21,10.28,39.26,20.02,16.59,14.6,25.73,34.02,25.73,54.67s-9.14,40.07-25.73,54.67c-16.59,14.6-38.65,22.64-62.11,22.64s-45.52-8.04-62.11-22.64c-16.59-14.6-25.73-34.02-25.73-54.67,0-6.88,1.02-13.63,2.98-20.11s4.89-12.68,8.7-18.49c14.72-23.15,45.77-38.77,76.15-38.72h0Zm0-.12c-30.38.07-60.32,14.71-75.95,38.35-3.81,5.74-6.82,11.94-8.87,18.5-2.05,6.55-3.14,13.46-3.14,20.58,0,42.76,39.38,77.43,87.96,77.43s87.96-34.67,87.96-77.43c0-35.64-27.35-65.65-64.58-74.66-7.45-1.8-15.29-2.77-23.39-2.77h0Z" fill="#fff" stroke-width="0"/><path d="m139.71,72.56c5.94,0,11.79.51,17.48,1.51,17.09,2.98,32.79,10.33,45.39,21.42,16.79,14.78,26.04,34.44,26.04,55.34s-9.25,40.56-26.04,55.34c-16.79,14.78-39.12,22.92-62.87,22.92s-46.08-8.14-62.87-22.92c-16.79-14.78-26.04-34.44-26.04-55.34,0-10.45,2.31-20.59,6.72-29.97,2.21-4.69,4.94-9.18,8.16-13.44,15.92-21.27,44.76-34.94,74.03-34.86h0Zm0-.12c-31.49.04-61.43,15.66-76.89,38.82-3.86,5.81-6.9,12.09-8.97,18.73-2.07,6.63-3.18,13.62-3.18,20.84,0,43.29,39.87,78.38,89.04,78.38s89.04-35.09,89.04-78.38c0-36.07-27.69-66.45-65.37-75.58-7.54-1.83-15.48-2.8-23.67-2.8h0Z" fill="#fff" stroke-width="0"/><path d="m139.71,71.61c6.01,0,11.93.52,17.7,1.52,17.29,3.02,33.19,10.46,45.94,21.68,17,14.96,26.36,34.85,26.36,56.01s-9.36,41.05-26.36,56.01c-17,14.96-39.6,23.2-63.63,23.2s-46.64-8.24-63.63-23.2c-17-14.96-26.36-34.85-26.36-56.01,0-10.58,2.34-20.84,6.81-30.33,2.23-4.74,5-9.3,8.26-13.6,16.82-21.72,44.55-35.39,74.92-35.29h0Zm0-.12c-31.49.02-61.43,15.64-77.82,39.29-3.91,5.88-6.98,12.24-9.08,18.95-2.1,6.72-3.22,13.79-3.22,21.09,0,43.81,40.35,79.33,90.12,79.33s90.12-35.52,90.12-79.33c0-36.51-28.02-67.26-66.17-76.5-7.63-1.85-15.66-2.83-23.96-2.84h0Z" fill="#fff" stroke-width="0"/><path d="m139.71,70.66c6.08,0,12.07.52,17.91,1.54,17.5,3.05,33.59,10.58,46.49,21.94,17.2,15.14,26.67,35.27,26.67,56.68s-9.47,41.54-26.67,56.68c-17.2,15.14-40.07,23.48-64.4,23.48s-47.2-8.34-64.4-23.48c-17.2-15.14-26.67-35.27-26.67-56.68,0-10.71,2.37-21.09,6.89-30.69,2.26-4.8,5.06-9.41,8.36-13.76,15.5-22.17,45.45-34.86,75.82-35.71h0Zm0-.12c-32.6,0-62.54,15.61-78.75,39.76-3.96,5.95-7.07,12.38-9.19,19.18-2.12,6.8-3.26,13.95-3.26,21.34,0,44.34,40.83,80.28,91.2,80.28s91.2-35.94,91.2-80.28c0-36.95-28.36-68.07-66.96-77.41-7.72-1.87-15.85-2.87-24.25-2.87h0Z" fill="#fff" stroke-width="0"/><path d="m139.71,69.71c6.16,0,12.22.53,18.12,1.56,17.71,3.09,33.99,10.71,47.04,22.2,17.41,15.32,26.99,35.69,26.99,57.36s-9.59,42.04-26.99,57.36c-17.41,15.32-40.55,23.76-65.16,23.76s-47.76-8.44-65.16-23.76c-17.41-15.32-26.99-35.69-26.99-57.36,0-10.83,2.4-21.34,6.97-31.06,2.29-4.86,5.12-9.52,8.46-13.92,17.51-21.64,45.24-36.28,76.72-36.13h0Zm0-.12c-32.6-.03-63.65,15.58-79.68,40.23-4,6.02-7.15,12.53-9.3,19.41-2.15,6.88-3.3,14.12-3.3,21.59,0,44.86,41.32,81.23,92.28,81.23s92.28-36.37,92.28-81.23c0-37.39-28.69-68.87-67.75-78.33-7.81-1.89-16.04-2.9-24.53-2.9h0Z" fill="#fff" stroke-width="0"/><path d="m139.71,68.76c6.3,0,12.49.55,18.56,1.62,6.06,1.08,11.99,2.69,17.74,4.83,11.1,4.13,21.07,10.05,29.63,17.59,8.56,7.54,15.28,16.31,19.98,26.09,4.86,10.12,7.33,20.86,7.33,31.94s-2.46,21.83-7.33,31.94c-4.7,9.77-11.42,18.55-19.98,26.09-8.56,7.54-18.53,13.45-29.63,17.59-11.49,4.28-23.7,6.45-36.29,6.45s-24.8-2.17-36.29-6.45c-11.1-4.13-21.07-10.05-29.63-17.59-8.56-7.54-15.28-16.31-19.98-26.09-4.86-10.12-7.33-20.86-7.33-31.94s2.46-21.83,7.33-31.94c2.35-4.89,5.2-9.52,8.54-13.89,17.05-23.72,46.99-35.44,77.37-36.24h0Zm0-.12c-32.6.92-64.76,15.56-80.62,40.7-4.05,6.09-7.24,12.68-9.41,19.63-2.17,6.96-3.34,14.28-3.34,21.85,0,45.39,41.8,82.18,93.36,82.18s93.36-36.79,93.36-82.18c0-37.82-29.03-69.68-68.54-79.24-7.9-1.91-16.23-2.94-24.82-2.94h0Z" fill="#fff" stroke-width="0"/><path d="m139.71,67.81c6.37,0,12.64.55,18.77,1.64,6.13,1.09,12.13,2.72,17.94,4.89,11.23,4.18,21.32,10.17,29.98,17.79,8.66,7.62,15.46,16.5,20.21,26.39,4.92,10.23,7.41,21.11,7.41,32.31s-2.49,22.08-7.41,32.31c-4.75,9.89-11.55,18.76-20.21,26.39-8.66,7.62-18.75,13.61-29.98,17.79-11.63,4.33-23.98,6.52-36.71,6.52s-25.08-2.19-36.71-6.52c-11.23-4.18-21.32-10.17-29.98-17.79-8.66-7.62-15.46-16.5-20.21-26.39-4.92-10.23-7.41-21.11-7.41-32.31s2.49-22.08,7.41-32.31c2.38-4.94,5.26-9.63,8.64-14.05,16.83-23.19,46.77-35.88,78.26-36.66h0Zm0-.12c-33.7-.09-64.76,15.53-81.55,41.17-4.1,6.16-7.32,12.82-9.52,19.86-2.2,7.04-3.37,14.45-3.37,22.1,0,45.91,42.28,83.13,94.44,83.13s94.44-37.22,94.44-83.13c0-38.26-29.36-70.48-69.34-80.16-7.99-1.94-16.41-2.97-25.11-2.97h0Z" fill="#fff" stroke-width="0"/><path d="m139.71,66.86c6.44,0,12.78.56,18.99,1.66,6.2,1.1,12.27,2.75,18.15,4.94,11.36,4.23,21.56,10.28,30.32,17.99,8.76,7.71,15.64,16.69,20.44,26.69,4.97,10.35,7.5,21.35,7.5,32.68s-2.52,22.33-7.5,32.68c-4.8,10-11.68,18.98-20.44,26.69-8.76,7.71-18.96,13.77-30.32,17.99-11.76,4.38-24.25,6.6-37.13,6.6s-25.37-2.22-37.13-6.6c-11.36-4.23-21.56-10.28-30.32-17.99-8.76-7.71-15.64-16.69-20.44-26.69-4.97-10.35-7.5-21.35-7.5-32.68s2.52-22.33,7.5-32.68c2.4-5,5.32-9.74,8.73-14.21,17.73-22.66,47.67-37.31,79.16-37.08h0Zm0-.12c-33.7-.11-66.97,15.51-82.48,41.64-4.14,6.23-7.4,12.97-9.63,20.09-2.22,7.12-3.41,14.61-3.41,22.35,0,46.44,42.77,84.08,95.52,84.08s95.52-37.64,95.52-84.08c0-38.7-29.7-71.29-70.13-81.08-8.09-1.96-16.6-3-25.4-3.01h0Z" fill="#fff" stroke-width="0"/><path d="m139.71,65.9c6.51,0,12.93.56,19.2,1.68s12.4,2.78,18.35,5c11.49,4.28,21.8,10.4,30.66,18.2,8.86,7.8,15.82,16.88,20.67,26.99,5.03,10.47,7.58,21.59,7.58,33.05s-2.55,22.58-7.58,33.05c-4.86,10.11-11.81,19.19-20.67,26.99-8.86,7.8-19.18,13.92-30.66,18.2-11.89,4.43-24.53,6.67-37.55,6.67s-25.66-2.25-37.55-6.67c-11.49-4.28-21.8-10.4-30.66-18.2-8.86-7.8-15.82-16.88-20.67-26.99-5.03-10.47-7.58-21.59-7.58-33.05s2.55-22.58,7.58-33.05c2.43-5.06,5.38-9.85,8.83-14.37,17.51-23.11,47.46-36.78,80.05-37.5h0Zm0-.12c-34.81-.14-65.87,17.43-83.41,42.11-4.19,6.3-7.49,13.12-9.74,20.31-2.25,7.2-3.45,14.78-3.45,22.6,0,46.96,43.25,85.03,96.6,85.03s96.6-38.07,96.6-85.03c0-39.13-30.03-72.09-70.92-81.99-8.18-1.98-16.79-3.04-25.68-3.04h0Z" fill="#fff" stroke-width="0"/><path d="m139.71,64.95c6.59,0,13.07.57,19.42,1.7,6.34,1.13,12.54,2.81,18.56,5.05,11.62,4.32,22.05,10.52,31.01,18.4,8.96,7.89,15.99,17.07,20.91,27.29,5.09,10.59,7.67,21.83,7.67,33.42s-2.58,22.84-7.67,33.42c-4.91,10.22-11.95,19.41-20.91,27.29-8.96,7.89-19.39,14.08-31.01,18.4-12.03,4.48-24.8,6.75-37.97,6.75s-25.94-2.27-37.97-6.75c-11.62-4.32-22.05-10.52-31.01-18.4-8.96-7.89-15.99-17.07-20.91-27.29-5.09-10.59-7.67-21.83-7.67-33.42s2.58-22.84,7.67-33.42c2.46-5.11,5.44-9.96,8.93-14.53,17.3-23.55,48.35-37.22,80.95-37.92h0Zm0-.12c-34.81-.16-66.97,16.43-84.35,42.59-4.24,6.37-7.57,13.26-9.85,20.54-2.27,7.28-3.49,14.94-3.49,22.86,0,47.49,43.73,85.98,97.68,85.98s97.68-38.5,97.68-85.98c0-39.57-30.37-72.9-71.71-82.91-8.27-2-16.98-3.07-25.97-3.07h0Z" fill="#fff" stroke-width="0"/><path d="m139.71,64c6.66,0,13.22.58,19.63,1.72,6.41,1.14,12.68,2.85,18.76,5.11,11.74,4.37,22.29,10.63,31.35,18.61,9.06,7.97,16.17,17.26,21.14,27.6,5.14,10.7,7.75,22.07,7.75,33.79s-2.61,23.09-7.75,33.79c-4.97,10.34-12.08,19.62-21.14,27.6-9.06,7.97-19.61,14.23-31.35,18.61-12.16,4.53-25.08,6.82-38.39,6.82s-26.23-2.3-38.39-6.82c-11.74-4.37-22.29-10.63-31.35-18.61-9.06-7.97-16.17-17.26-21.14-27.6-5.14-10.7-7.75-22.07-7.75-33.79s2.61-23.09,7.75-33.79c2.48-5.17,5.5-10.07,9.03-14.69,17.09-24,49.25-37.67,81.85-38.34h0Zm0-.12c-37.03.79-72.52,19.33-88.72,48.7-3.21,5.77-5.72,11.9-7.43,18.3-1.71,6.4-2.61,13.07-2.61,19.93,0,48.01,44.22,86.93,98.76,86.93s98.76-38.92,98.76-86.93c0-41.15-32.49-75.63-76.12-84.64-7.27-1.5-14.85-2.3-22.65-2.3h0Z" fill="#fff" stroke-width="0"/><path d="m139.71,63.05c6.73,0,13.36.58,19.85,1.73,6.48,1.15,12.82,2.88,18.97,5.16,11.87,4.42,22.54,10.75,31.69,18.81,9.16,8.06,16.35,17.45,21.37,27.9,5.2,10.82,7.84,22.31,7.84,34.16s-2.64,23.34-7.84,34.16c-5.02,10.45-12.21,19.84-21.37,27.9-9.16,8.06-19.82,14.39-31.69,18.81-12.29,4.58-25.35,6.9-38.81,6.9s-26.52-2.32-38.81-6.9c-11.87-4.42-22.54-10.75-31.69-18.81-9.16-8.06-16.35-17.45-21.37-27.9-5.2-10.82-7.84-22.31-7.84-34.16s2.64-23.34,7.84-34.16c2.51-5.23,5.56-10.19,9.13-14.85,17.98-23.47,50.14-39.09,82.74-38.76h0Zm0-.12c-37.03.76-74.74,18.33-89.69,49.24-3.25,5.83-5.79,12.03-7.51,18.5-1.72,6.47-2.64,13.22-2.64,20.15,0,48.54,44.7,87.88,99.84,87.88s99.84-39.35,99.84-87.88c0-41.6-32.84-76.45-76.95-85.56-7.35-1.52-15.02-2.32-22.89-2.32h0Z" fill="#fff" stroke-width="0"/><path d="m139.71,62.1c6.8,0,13.51.59,20.06,1.75,6.55,1.16,12.96,2.91,19.17,5.22,12,4.47,22.78,10.87,32.04,19.01,9.26,8.15,16.52,17.64,21.6,28.2,5.26,10.94,7.92,22.56,7.92,34.53s-2.66,23.6-7.92,34.53c-5.08,10.56-12.34,20.05-21.6,28.2-9.26,8.15-20.04,14.54-32.04,19.01-12.43,4.63-25.63,6.97-39.23,6.97s-26.81-2.35-39.23-6.97c-12-4.47-22.78-10.87-32.04-19.01-9.26-8.15-16.52-17.64-21.6-28.2-5.26-10.94-7.92-22.56-7.92-34.53s2.66-23.6,7.92-34.53c2.54-5.28,5.62-10.3,9.23-15.01,18.88-23.92,49.93-39.53,83.64-39.18h0Zm0-.12c-38.14.73-74.74,19.28-90.66,49.77-3.28,5.89-5.85,12.16-7.59,18.7-1.74,6.54-2.67,13.36-2.67,20.37,0,49.06,45.18,88.83,100.92,88.83s100.92-39.77,100.92-88.83c0-42.05-33.2-77.28-77.78-86.49-7.43-1.53-15.18-2.35-23.14-2.35h0Z" fill="#fff" stroke-width="0"/><path d="m139.71,61.15c6.88,0,13.65.59,20.27,1.77,6.62,1.18,13.1,2.94,19.38,5.28,12.13,4.52,23.02,10.98,32.38,19.22,9.36,8.23,16.7,17.82,21.83,28.5,5.31,11.05,8.01,22.8,8.01,34.9s-2.69,23.85-8.01,34.9c-5.13,10.68-12.48,20.27-21.83,28.5-9.36,8.23-20.25,14.7-32.38,19.22-12.56,4.68-25.9,7.05-39.65,7.05s-27.09-2.37-39.65-7.05c-12.13-4.52-23.02-10.98-32.38-19.22-9.36-8.23-16.7-17.82-21.83-28.5-5.31-11.05-8.01-22.8-8.01-34.9s2.69-23.85,8.01-34.9c2.57-5.34,5.68-10.41,9.33-15.17,18.67-24.36,50.83-39,84.53-39.6h0Zm0-.12c-38.14.71-75.85,19.26-91.63,50.3-3.32,5.96-5.91,12.29-7.67,18.9-1.76,6.61-2.69,13.5-2.69,20.59,0,49.59,45.67,89.78,102,89.78s102-40.2,102-89.78c0-42.5-33.55-78.11-78.61-87.41-7.51-1.55-15.34-2.37-23.39-2.37h0Z" fill="#fff" stroke-width="0"/><path d="m139.71,60.2c6.95,0,13.8.6,20.49,1.79,6.69,1.19,13.24,2.97,19.58,5.33,12.26,4.56,23.27,11.1,32.72,19.42,9.45,8.32,16.88,18.01,22.06,28.8,5.37,11.17,8.09,23.04,8.09,35.27s-2.72,24.1-8.09,35.27c-5.19,10.79-12.61,20.48-22.06,28.8-9.45,8.32-20.46,14.86-32.72,19.42-12.69,4.73-26.17,7.12-40.07,7.12s-27.38-2.4-40.07-7.12c-12.26-4.56-23.27-11.1-32.72-19.42-9.45-8.32-16.88-18.01-22.06-28.8-5.37-11.17-8.09-23.04-8.09-35.27s2.72-24.1,8.09-35.27c2.59-5.4,5.74-10.52,9.43-15.33,19.56-23.83,51.72-39.45,85.43-40.02h0Zm0-.12c-39.25.68-75.85,20.21-92.6,50.83-3.35,6.02-5.97,12.42-7.75,19.1-1.78,6.68-2.72,13.65-2.72,20.8,0,50.11,46.15,90.73,103.08,90.73s103.08-40.62,103.08-90.73c0-42.95-33.91-78.93-79.44-88.34-7.59-1.57-15.5-2.4-23.64-2.4h0Z" fill="#fff" stroke-width="0"/></g></g><g opacity=".44"><g clip-path="url(#uuid-b55ccc65-ae20-4e8a-8d5d-0c95270688fd)"><path d="m138.5,182.63c-19.85,0-36.01-14.22-36.01-31.69s16.15-31.69,36.01-31.69,36.01,14.22,36.01,31.69-16.15,31.69-36.01,31.69h0Zm0,.12c19.96,0,36.14-14.24,36.14-31.81s-16.18-31.81-36.14-31.81-36.14,14.24-36.14,31.81,16.18,31.81,36.14,31.81h0Z" fill="#fff" stroke-width="0"/><path d="m138.5,183.58c-20.45,0-37.09-14.64-37.09-32.65s16.64-32.65,37.09-32.65,37.09,14.64,37.09,32.65-16.64,32.65-37.09,32.65h0Zm0,.12c20.56,0,37.22-14.67,37.22-32.76s-16.66-32.76-37.22-32.76-37.22,14.67-37.22,32.76,16.66,32.76,37.22,32.76h0Z" fill="#fff" stroke-width="0"/><path d="m138.5,184.53c-21.05,0-38.17-15.07-38.17-33.6s17.12-33.6,38.17-33.6,38.17,15.07,38.17,33.6-17.12,33.6-38.17,33.6h0Zm0,.12c21.15,0,38.3-15.09,38.3-33.71s-17.15-33.71-38.3-33.71-38.3,15.09-38.3,33.71,17.15,33.71,38.3,33.71h0Z" fill="#fff" stroke-width="0"/><path d="m138.5,185.48c-21.64,0-39.25-15.5-39.25-34.55s17.61-34.55,39.25-34.55,39.25,15.5,39.25,34.55-17.61,34.55-39.25,34.55h0Zm0,.12c21.75,0,39.38-15.52,39.38-34.66s-17.63-34.66-39.38-34.66-39.38,15.52-39.38,34.66,17.63,34.66,39.38,34.66h0Z" fill="#fff" stroke-width="0"/><path d="m138.5,186.44c-22.24,0-40.33-15.92-40.33-35.5s18.09-35.5,40.33-35.5,40.33,15.92,40.33,35.5-18.09,35.5-40.33,35.5h0Zm0,.12c22.34,0,40.46-15.94,40.46-35.61s-18.11-35.61-40.46-35.61-40.46,15.94-40.46,35.61,18.11,35.61,40.46,35.61h0Z" fill="#fff" stroke-width="0"/><path d="m138.5,187.39c-22.83,0-41.41-16.35-41.41-36.45,0-6.7,2.06-12.98,5.66-18.38,3.6-5.4,8.73-9.92,14.86-13.08,6.13-3.17,13.27-4.98,20.88-4.98,22.83,0,41.41,16.35,41.41,36.45s-18.57,36.45-41.41,36.45h0Zm0,.12c22.94,0,41.54-16.37,41.54-36.56s-18.6-36.56-41.54-36.56c-7.65,0-14.81,1.82-20.97,4.99-6.15,3.17-11.3,7.7-14.9,13.12-3.6,5.42-5.67,11.72-5.67,18.45,0,20.19,18.6,36.56,41.54,36.56h0Z" fill="#fff" stroke-width="0"/><path d="m138.5,188.34c-23.43,0-42.49-16.78-42.49-37.4,0-6.87,2.12-13.32,5.81-18.86,3.69-5.54,8.96-10.17,15.25-13.42s13.62-5.11,21.43-5.11c23.43,0,42.49,16.78,42.49,37.4s-19.06,37.4-42.49,37.4h0Zm0,.12c23.54,0,42.62-16.8,42.62-37.51s-19.08-37.51-42.62-37.51c-7.85,0-15.2,1.87-21.51,5.12s-11.59,7.9-15.29,13.46c-3.7,5.56-5.82,12.03-5.82,18.93,0,20.72,19.08,37.51,42.62,37.51h0Z" fill="#fff" stroke-width="0"/><path d="m138.5,189.29c-24.02,0-43.57-17.2-43.57-38.35,0-7.05,2.17-13.66,5.96-19.34,3.79-5.68,9.18-10.43,15.64-13.76,6.45-3.33,13.96-5.24,21.97-5.24,8.01,0,15.52,1.91,21.97,5.24,12.91,6.66,21.59,19.01,21.59,33.1,0,21.14-19.54,38.35-43.57,38.35h0Zm0,.12c24.13,0,43.7-17.22,43.7-38.46,0-14.16-8.7-26.54-21.64-33.21-6.47-3.34-14.01-5.25-22.05-5.25-8.04,0-15.58,1.91-22.06,5.25-6.47,3.34-11.88,8.1-15.68,13.8-3.79,5.7-5.97,12.33-5.97,19.41,0,21.24,19.56,38.46,43.7,38.46h0Z" fill="#fff" stroke-width="0"/><path d="m138.5,190.24c-24.62,0-44.65-17.63-44.65-39.3,0-5.42,1.25-10.58,3.51-15.28s5.54-8.93,9.58-12.49c4.04-3.56,8.85-6.44,14.19-8.43,5.34-1.99,11.21-3.09,17.36-3.09,24.62,0,44.65,17.63,44.65,39.3s-20.03,39.3-44.65,39.3h0Zm0,.12c24.73,0,44.78-17.65,44.78-39.41s-20.05-39.41-44.78-39.41c-6.18,0-12.07,1.1-17.43,3.1s-10.18,4.88-14.23,8.45c-4.05,3.57-7.33,7.81-9.6,12.53-2.27,4.72-3.52,9.9-3.52,15.34,0,21.77,20.05,39.41,44.78,39.41h0Z" fill="#fff" stroke-width="0"/><path d="m138.5,191.19c-25.21,0-45.72-18.06-45.72-40.25,0-5.55,1.28-10.84,3.6-15.65s5.67-9.15,9.81-12.8c8.69-7.06,19.78-11.94,32.32-11.8,6.3,0,12.31,1.13,17.78,3.17,16.41,6.12,27.94,20.44,27.94,37.08,0,22.19-20.51,40.25-45.72,40.25h0Zm0,.12c25.33,0,45.86-18.07,45.86-40.36,0-16.72-11.55-31.06-28.01-37.19-5.49-2.04-11.52-3.17-17.85-3.17-12.53-.02-23.62,3.88-32.43,11.82-4.15,3.65-7.51,8-9.83,12.83-2.32,4.83-3.6,10.14-3.6,15.71,0,22.29,20.53,40.36,45.86,40.36h0Z" fill="#fff" stroke-width="0"/><path d="m138.5,192.14c-25.81,0-46.8-18.48-46.8-41.2,0-5.68,1.31-11.09,3.68-16.02s5.8-9.37,10.04-13.1c8.35-7.36,20.55-12.24,33.08-12.08,6.45,0,12.6,1.16,18.2,3.24,16.79,6.26,28.6,20.92,28.6,37.96,0,22.72-21,41.2-46.8,41.2h0Zm0,.12c25.92,0,46.94-18.5,46.94-41.31,0-17.11-11.82-31.8-28.67-38.07-5.62-2.09-11.79-3.25-18.27-3.25-12.53-.05-23.62,4.83-33.19,12.1-4.25,3.74-7.68,8.19-10.06,13.13-2.38,4.94-3.69,10.38-3.69,16.08,0,22.82,21.01,41.31,46.94,41.31h0Z" fill="#fff" stroke-width="0"/><path d="m138.5,193.09c-26.4,0-47.88-18.91-47.88-42.15,0-5.81,1.34-11.35,3.77-16.39s5.94-9.58,10.27-13.4c9.11-7.67,21.31-12.55,33.84-12.36,6.6,0,12.89,1.18,18.62,3.32,17.18,6.41,29.26,21.4,29.26,38.83,0,23.24-21.48,42.15-47.88,42.15h0Zm0,.12c26.52,0,48.02-18.92,48.02-42.26,0-17.51-12.09-32.53-29.33-38.94-5.74-2.14-12.06-3.32-18.69-3.32-12.53-.07-25.84,3.83-33.95,12.38-4.34,3.83-7.86,8.38-10.29,13.44-2.43,5.06-3.77,10.62-3.77,16.45,0,23.34,21.5,42.26,48.02,42.26h0Z" fill="#fff" stroke-width="0"/><path d="m138.5,194.04c-27,0-48.96-19.33-48.96-43.1,0-5.94,1.37-11.61,3.85-16.76s6.07-9.8,10.5-13.7c9.87-6.99,20.96-12.85,34.61-12.64,6.75,0,13.18,1.21,19.04,3.39,17.57,6.55,29.92,21.88,29.92,39.71,0,23.76-21.97,43.1-48.96,43.1h0Zm0,.12c27.11,0,49.1-19.35,49.1-43.22,0-17.9-12.36-33.26-29.99-39.82-5.87-2.19-12.33-3.4-19.11-3.4-13.64-.1-25.84,4.78-34.72,12.66-4.44,3.91-8.04,8.57-10.52,13.74-2.48,5.17-3.86,10.85-3.86,16.82,0,23.87,21.98,43.22,49.1,43.22h0Z" fill="#fff" stroke-width="0"/><path d="m138.5,194.99c-27.59,0-50.04-19.76-50.04-44.05,0-6.07,1.4-11.86,3.94-17.13,2.54-5.27,6.2-10.02,10.73-14,10.64-6.32,21.73-14.13,35.37-12.91,6.9,0,13.48,1.24,19.46,3.47,17.96,6.7,30.58,22.37,30.58,40.58,0,24.29-22.45,44.05-50.04,44.05h0Zm0,.12c27.71,0,50.18-19.77,50.18-44.17,0-18.29-12.64-33.99-30.64-40.69-6-2.23-12.6-3.47-19.53-3.47-13.64-.12-25.84,5.73-35.48,12.93-4.54,4-8.21,8.76-10.75,14.04-2.54,5.28-3.94,11.09-3.94,17.19,0,24.39,22.46,44.17,50.18,44.17h0Z" fill="#fff" stroke-width="0"/><path d="m138.5,195.94c-28.19,0-51.12-20.19-51.12-45,0-6.2,1.43-12.12,4.02-17.5,2.59-5.38,6.34-10.23,10.97-14.31,9.18-8.58,22.49-12.48,36.13-13.19,7.05,0,13.77,1.26,19.88,3.54,18.34,6.84,31.24,22.85,31.24,41.46,0,24.81-22.93,45-51.12,45h0Zm0,.12c28.31,0,51.26-20.2,51.26-45.12,0-18.69-12.91-34.72-31.3-41.57-6.13-2.28-12.87-3.55-19.95-3.55-13.64-.15-26.95,4.73-36.24,13.21-4.64,4.08-8.39,8.94-10.98,14.34-2.59,5.4-4.03,11.33-4.03,17.56,0,24.92,22.95,45.12,51.26,45.12h0Z" fill="#fff" stroke-width="0"/><path d="m138.5,196.89c-28.78,0-52.2-20.61-52.2-45.95,0-6.33,1.46-12.37,4.11-17.87,2.65-5.5,6.47-10.45,11.2-14.61,9.95-7.91,23.25-13.76,36.9-13.47,7.2,0,14.06,1.29,20.3,3.62,18.73,6.99,31.9,23.33,31.9,42.33,0,25.34-23.42,45.95-52.2,45.95h0Zm0,.12c28.9,0,52.33-20.62,52.33-46.07,0-19.08-13.18-35.45-31.96-42.45-6.26-2.33-13.15-3.62-20.37-3.62-13.64-.17-26.95,4.71-37.01,13.49-4.73,4.17-8.57,9.13-11.21,14.65-2.65,5.51-4.11,11.57-4.11,17.93,0,25.44,23.43,46.07,52.33,46.07h0Z" fill="#fff" stroke-width="0"/><path d="m138.5,197.84c-29.38,0-53.28-21.04-53.28-46.9,0-6.47,1.49-12.63,4.19-18.24s6.61-10.66,11.43-14.91c10.71-7.23,22.91-14.07,37.66-13.75,7.35,0,14.35,1.32,20.72,3.69,19.12,7.13,32.56,23.81,32.56,43.21,0,25.86-23.9,46.9-53.28,46.9h0Zm0,.12c29.5,0,53.41-21.05,53.41-47.02,0-19.47-13.45-36.18-32.62-43.32-6.39-2.38-13.42-3.69-20.79-3.7-14.75.78-28.06,5.66-37.77,13.77-4.83,4.26-8.74,9.32-11.45,14.95-2.7,5.62-4.2,11.81-4.2,18.3,0,25.97,23.91,47.02,53.41,47.02h0Z" fill="#fff" stroke-width="0"/><path d="m138.5,198.79c-29.98,0-54.36-21.47-54.36-47.85,0-6.6,1.52-12.89,4.28-18.61,2.75-5.72,6.74-10.88,11.66-15.22,9.26-10.47,24.78-12.42,38.42-14.03,7.49,0,14.64,1.34,21.14,3.77,19.5,7.27,33.22,24.3,33.22,44.08,0,26.39-24.39,47.85-54.36,47.85h0Zm0,.12c30.1,0,54.49-21.48,54.49-47.97,0-19.87-13.72-36.92-33.28-44.2-6.52-2.43-13.69-3.77-21.21-3.77-13.64.75-29.17,4.65-38.53,14.05-4.93,4.34-8.92,9.51-11.68,15.25-2.76,5.74-4.28,12.05-4.28,18.67,0,26.49,24.4,47.97,54.49,47.97h0Z" fill="#fff" stroke-width="0"/><path d="m138.5,199.74c-30.57,0-55.44-21.89-55.44-48.8,0-6.73,1.55-13.14,4.36-18.98,2.81-5.84,6.87-11.1,11.89-15.52,10.02-9.79,24.44-13.7,39.19-14.31,7.64,0,14.93,1.37,21.56,3.84,19.89,7.42,33.88,24.78,33.88,44.96,0,26.91-24.87,48.8-55.44,48.8h0Zm0,.12c30.69,0,55.57-21.9,55.57-48.92,0-20.26-14-37.65-33.94-45.07-6.65-2.48-13.96-3.84-21.63-3.85-14.75-.25-29.17,5.61-39.3,14.33-5.03,4.43-9.09,9.7-11.91,15.55-2.81,5.85-4.37,12.29-4.37,19.04,0,27.02,24.88,48.92,55.57,48.92h0Z" fill="#fff" stroke-width="0"/><path d="m138.5,200.69c-15.1,0-29.29-5.18-39.97-14.57-10.68-9.4-16.55-21.89-16.55-35.18,0-4.43.65-8.77,1.92-12.94s3.15-8.16,5.6-11.9c8.75-15.55,28.71-24.33,49-24.92,5.03,0,9.97.58,14.7,1.69,9.47,2.23,18.15,6.62,25.27,12.88,10.68,9.4,16.55,21.89,16.55,35.18s-5.88,25.78-16.55,35.18c-10.68,9.4-24.87,14.57-39.97,14.57h0Zm0,.12c31.29,0,56.65-22.33,56.65-49.87,0-20.66-14.27-38.38-34.6-45.95-6.78-2.52-14.23-3.92-22.05-3.92-15.86-.28-29.17,5.58-40.06,14.6-5.12,4.52-9.27,9.89-12.14,15.86-2.87,5.97-4.45,12.53-4.45,19.41,0,27.54,25.36,49.87,56.65,49.87h0Z" fill="#fff" stroke-width="0"/><path d="m138.5,201.64c-15.39,0-29.85-5.27-40.73-14.85-10.88-9.58-16.87-22.31-16.87-35.85,0-4.51.67-8.94,1.96-13.19s3.21-8.32,5.71-12.12c11.9-15.07,28.53-24.84,49.94-25.39,5.13,0,10.16.59,14.98,1.72,9.65,2.27,18.5,6.74,25.75,13.13,10.88,9.58,16.87,22.31,16.87,35.85s-5.99,26.28-16.87,35.85c-10.88,9.58-25.34,14.85-40.73,14.85h0Zm0,.12c31.89,0,57.73-22.75,57.73-50.82,0-21.05-14.54-39.11-35.26-46.82-6.91-2.57-14.5-3.99-22.47-4-15.86.67-30.28,5.55-40.83,14.88-5.22,4.6-9.45,10.08-12.37,16.16-2.92,6.08-4.54,12.76-4.54,19.78,0,28.07,25.85,50.82,57.73,50.82h0Z" fill="#fff" stroke-width="0"/><path d="m138.5,202.59c-15.67,0-30.41-5.37-41.49-15.13-11.08-9.76-17.19-22.73-17.19-36.52,0-4.6.68-9.11,1.99-13.43,1.31-4.33,3.27-8.47,5.81-12.35,10.62-15.58,29.47-25.34,50.87-25.87,5.23,0,10.35.6,15.26,1.76,9.83,2.31,18.84,6.87,26.23,13.37,11.08,9.76,17.19,22.73,17.19,36.52s-6.1,26.77-17.19,36.52c-11.08,9.76-25.82,15.13-41.49,15.13h0Zm0,.12c32.48,0,58.81-23.18,58.81-51.77,0-21.44-14.81-39.84-35.92-47.7-7.04-2.62-14.77-4.07-22.89-4.07-15.86,1.62-31.38,4.55-41.59,15.16-5.32,4.69-9.62,10.27-12.6,16.46-2.98,6.19-4.62,13-4.62,20.15,0,28.59,26.33,51.77,58.81,51.77h0Z" fill="#fff" stroke-width="0"/><path d="m138.5,203.54c-15.96,0-30.97-5.47-42.26-15.41-11.29-9.94-17.5-23.15-17.5-37.2,0-4.68.69-9.27,2.03-13.68,1.34-4.41,3.33-8.63,5.92-12.58,10.44-17.05,31.52-25.84,51.81-26.35,5.32,0,10.54.61,15.54,1.79,10.01,2.36,19.19,7,26.72,13.62,11.29,9.94,17.5,23.15,17.5,37.2s-6.22,27.26-17.5,37.2c-11.29,9.94-26.29,15.41-42.26,15.41h0Zm0,.12c33.08,0,59.89-23.6,59.89-52.72,0-21.84-15.08-40.57-36.58-48.58-7.17-2.67-15.04-4.14-23.31-4.15-22.51.62-46.91,11.36-55.18,32.2-3.03,6.31-4.71,13.24-4.71,20.52,0,29.12,26.81,52.72,59.89,52.72h0Z" fill="#fff" stroke-width="0"/><path d="m138.5,204.49c-16.25,0-31.53-5.57-43.02-15.69-11.49-10.11-17.82-23.56-17.82-37.87,0-4.77.7-9.44,2.07-13.93s3.39-8.79,6.03-12.81c11.38-15.6,31.34-28.29,52.75-26.82,5.42,0,10.73.62,15.82,1.82,10.19,2.4,19.54,7.12,27.2,13.87,11.49,10.11,17.82,23.56,17.82,37.87s-6.33,27.75-17.82,37.87c-11.49,10.11-26.77,15.69-43.02,15.69h0Zm0,.12c33.67,0,60.97-24.03,60.97-53.67,0-22.23-15.36-41.3-37.24-49.45-7.29-2.72-15.31-4.22-23.74-4.22-23.62.6-46.91,13.29-56.18,32.78-3.09,6.42-4.79,13.48-4.79,20.89,0,29.64,27.3,53.67,60.97,53.67h0Z" fill="#fff" stroke-width="0"/><path d="m138.5,205.44c-16.54,0-32.09-5.67-43.78-15.96-11.7-10.29-18.14-23.98-18.14-38.54,0-4.85.72-9.61,2.1-14.17,1.39-4.57,3.45-8.94,6.13-13.03,11.21-16.1,32.28-27.82,53.68-27.3,5.51,0,10.92.63,16.1,1.85,10.37,2.44,19.88,7.25,27.68,14.11,11.7,10.29,18.14,23.98,18.14,38.54s-6.44,28.25-18.14,38.54c-11.7,10.29-27.24,15.96-43.78,15.96h0Zm0,.12c34.27,0,62.05-24.45,62.05-54.62,0-22.62-15.63-42.04-37.9-50.33-7.42-2.76-15.59-4.29-24.16-4.3-24.73.57-48.02,13.26-57.17,33.36-3.14,6.53-4.88,13.72-4.88,21.26,0,30.17,27.78,54.62,62.05,54.62h0Z" fill="#fff" stroke-width="0"/><path d="m138.5,206.39c-16.83,0-32.65-5.77-44.55-16.24-11.9-10.47-18.45-24.4-18.45-39.21,0-4.94.73-9.78,2.14-14.42s3.51-9.1,6.24-13.26c11.04-16.61,32.11-28.32,54.62-27.77,5.61,0,11.11.64,16.39,1.89,10.56,2.48,20.23,7.38,28.16,14.36,11.9,10.47,18.45,24.4,18.45,39.21s-6.55,28.74-18.45,39.21c-11.9,10.47-27.72,16.24-44.55,16.24h0Zm0,.12c34.87,0,63.13-24.88,63.13-55.57,0-24.55-18.09-45.39-43.18-52.74-6.27-1.84-12.98-2.83-19.96-2.84-20.29.55-40.26,8.35-50.95,22.75-3.83,4.6-6.87,9.74-8.96,15.26-2.09,5.52-3.22,11.43-3.22,17.56,0,30.69,28.27,55.57,63.13,55.57h0Z" fill="#fff" stroke-width="0"/><path d="m138.5,207.34c-17.12,0-33.21-5.87-45.31-16.52-12.1-10.65-18.77-24.82-18.77-39.88,0-5.02.74-9.94,2.18-14.67,1.44-4.73,3.57-9.25,6.35-13.49,9.75-17.11,33.04-28.82,55.55-28.25,5.71,0,11.3.65,16.67,1.92,10.74,2.53,20.58,7.5,28.65,14.6,12.1,10.65,18.77,24.82,18.77,39.88s-6.67,29.23-18.77,39.88c-12.1,10.65-28.19,16.52-45.31,16.52h0Zm0,.12c35.46,0,64.21-25.31,64.21-56.52,0-24.97-18.4-46.16-43.92-53.64-6.38-1.87-13.2-2.88-20.3-2.88-20.29.52-40.26,8.33-51.82,23.14-3.89,4.68-6.99,9.9-9.11,15.52-2.12,5.62-3.27,11.62-3.27,17.86,0,31.22,28.75,56.52,64.21,56.52h0Z" fill="#fff" stroke-width="0"/><path d="m138.5,208.29c-17.4,0-33.77-5.97-46.07-16.8-12.31-10.83-19.08-25.24-19.08-40.56,0-5.11.75-10.11,2.21-14.92s3.63-9.41,6.45-13.72c11.8-16.63,32.87-29.32,56.49-28.73,5.8,0,11.49.67,16.95,1.95,10.92,2.57,20.92,7.63,29.13,14.85,12.31,10.83,19.08,25.24,19.08,40.56s-6.78,29.72-19.08,40.56c-12.31,10.83-28.67,16.8-46.07,16.8h0Zm0,.12c36.06,0,65.29-25.73,65.29-57.47,0-25.39-18.71-46.94-44.65-54.54-6.49-1.9-13.43-2.93-20.64-2.93-21.4.49-40.26,8.3-52.69,23.53-3.96,4.76-7.11,10.07-9.27,15.78-2.16,5.71-3.33,11.82-3.33,18.17,0,31.74,29.23,57.47,65.29,57.47h0Z" fill="#fff" stroke-width="0"/><path d="m138.5,209.24c-17.69,0-34.33-6.06-46.84-17.08-12.51-11.01-19.4-25.65-19.4-41.23,0-5.19.77-10.28,2.25-15.16,1.48-4.88,3.69-9.57,6.56-13.94,10.52-18.11,33.81-29.82,57.43-29.2,5.9,0,11.68.68,17.23,1.98,11.1,2.61,21.27,7.76,29.61,15.1,12.51,11.01,19.4,25.65,19.4,41.23s-6.89,30.22-19.4,41.23c-12.51,11.01-29.14,17.08-46.84,17.08h0Zm0,.12c36.66,0,66.37-26.16,66.37-58.42,0-25.81-19.02-47.71-45.39-55.44-6.59-1.93-13.65-2.98-20.98-2.98-21.4-.51-41.36,9.25-53.57,23.92-4.02,4.84-7.22,10.24-9.42,16.04-2.2,5.8-3.38,12.01-3.38,18.47,0,32.27,29.72,58.42,66.37,58.42h0Z" fill="#fff" stroke-width="0"/><path d="m138.5,210.19c-17.98,0-34.89-6.16-47.6-17.36-12.71-11.19-19.72-26.07-19.72-41.9,0-5.28.78-10.45,2.29-15.41,1.51-4.96,3.75-9.72,6.67-14.17,10.34-18.61,34.74-29.35,58.36-29.68,6,0,11.87.69,17.51,2.02,11.28,2.66,21.62,7.88,30.09,15.34,12.71,11.19,19.72,26.07,19.72,41.9s-7,30.71-19.72,41.9c-12.71,11.19-29.62,17.36-47.6,17.36h0Zm0,.12c37.25,0,67.45-26.58,67.45-59.37,0-26.23-19.33-48.49-46.13-56.34-6.7-1.96-13.87-3.03-21.32-3.03-21.4-.53-41.36,9.23-54.44,24.31-4.09,4.92-7.34,10.4-9.57,16.3-2.23,5.9-3.44,12.21-3.44,18.77,0,32.79,30.2,59.37,67.45,59.37h0Z" fill="#fff" stroke-width="0"/><path d="m138.5,211.14c-18.27,0-35.45-6.26-48.36-17.63-12.92-11.37-20.03-26.49-20.03-42.57,0-5.36.79-10.61,2.32-15.66,1.53-5.04,3.81-9.88,6.77-14.4,11.28-18.14,34.57-30.83,59.3-30.15,6.09,0,12.06.7,17.79,2.05,11.46,2.7,21.96,8.01,30.58,15.59,12.92,11.37,20.03,26.49,20.03,42.57s-7.11,31.2-20.03,42.57c-12.92,11.37-30.1,17.63-48.36,17.63h0Zm0,.12c37.85,0,68.53-27.01,68.53-60.32,0-26.65-19.64-49.27-46.87-57.25-6.81-1.99-14.09-3.08-21.66-3.08-22.51-.56-42.47,10.18-55.31,24.7-4.15,5-7.46,10.57-9.73,16.56-2.27,5.99-3.49,12.4-3.49,19.07,0,33.31,30.68,60.32,68.53,60.32h0Z" fill="#fff" stroke-width="0"/><path d="m138.5,212.1c-18.56,0-36.01-6.36-49.13-17.91-13.12-11.55-20.35-26.91-20.35-43.24,0-5.45.8-10.78,2.36-15.9,1.56-5.12,3.87-10.03,6.88-14.63,12.22-18.64,35.51-31.33,60.23-30.63,6.19,0,12.25.71,18.07,2.08,11.64,2.74,22.31,8.13,31.06,15.84,13.12,11.55,20.35,26.91,20.35,43.24s-7.23,31.69-20.35,43.24c-13.12,11.55-30.57,17.91-49.13,17.91h0Zm0,.12c38.44,0,69.61-27.43,69.61-61.27,0-27.07-19.95-50.04-47.61-58.15-6.92-2.03-14.31-3.12-22.01-3.13-21.4.39-43.58,9.18-56.18,25.08-4.22,5.07-7.58,10.74-9.88,16.83-2.3,6.09-3.55,12.6-3.55,19.37,0,33.84,31.17,61.27,69.61,61.27h0Z" fill="#fff" stroke-width="0"/><path d="m138.5,213.05c-18.85,0-36.57-6.46-49.89-18.19-13.33-11.73-20.67-27.33-20.67-43.92,0-5.53.82-10.95,2.4-16.15s3.93-10.19,6.99-14.85c12.04-19.14,35.33-30.86,61.17-31.11,6.28,0,12.44.72,18.35,2.11,11.82,2.78,22.66,8.26,31.54,16.08,13.33,11.73,20.67,27.33,20.67,43.92s-7.34,32.19-20.67,43.92c-13.33,11.73-31.05,18.19-49.89,18.19h0Zm0,.12c39.04,0,70.69-27.86,70.69-62.22,0-27.49-20.26-50.82-48.35-59.05-7.02-2.06-14.54-3.17-22.35-3.18-22.51-.61-43.58,10.13-57.05,25.47-4.28,5.15-7.69,10.9-10.03,17.09-2.34,6.18-3.6,12.79-3.6,19.67,0,34.36,31.65,62.22,70.69,62.22h0Z" fill="#fff" stroke-width="0"/><path d="m138.5,214c-19.14,0-37.12-6.56-50.66-18.47-13.53-11.91-20.98-27.74-20.98-44.59,0-5.61.83-11.12,2.43-16.4,1.61-5.28,3.99-10.34,7.09-15.08,12.98-18.67,36.27-32.33,62.11-31.58,6.38,0,12.63.73,18.63,2.15,12,2.83,23,8.39,32.02,16.33,13.53,11.91,20.98,27.74,20.98,44.59s-7.45,32.68-20.98,44.59c-13.53,11.91-31.52,18.47-50.66,18.47h0Zm0,.12c39.64,0,71.77-28.28,71.77-63.17,0-27.91-20.56-51.6-49.08-59.95-7.13-2.09-14.76-3.22-22.69-3.23-23.62-.63-44.69,10.1-57.92,25.86-4.35,5.23-7.81,11.07-10.18,17.35-2.37,6.28-3.66,12.99-3.66,19.97,0,34.89,32.13,63.17,71.77,63.17h0Z" fill="#fff" stroke-width="0"/><path d="m138.5,214.95c-19.42,0-37.68-6.66-51.42-18.75-13.73-12.09-21.3-28.16-21.3-45.26,0-5.7.84-11.28,2.47-16.65s4.05-10.5,7.2-15.31c12.81-19.17,36.1-32.83,63.04-32.06,6.48,0,12.82.74,18.91,2.18,12.18,2.87,23.35,8.51,32.51,16.57,13.73,12.09,21.3,28.16,21.3,45.26s-7.56,33.17-21.3,45.26c-13.73,12.09-32,18.75-51.42,18.75h0Zm0,.12c40.23,0,72.85-28.71,72.85-64.12,0-28.33-20.87-52.37-49.82-60.85-7.24-2.12-14.98-3.27-23.03-3.27-23.62-.66-45.8,10.08-58.79,26.25-4.41,5.31-7.93,11.24-10.34,17.61-2.41,6.37-3.71,13.19-3.71,20.27,0,35.41,32.62,64.12,72.85,64.12h0Z" fill="#fff" stroke-width="0"/><path d="m138.5,215.9c-19.71,0-38.24-6.76-52.18-19.03-13.94-12.27-21.61-28.58-21.61-45.93,0-5.78.85-11.45,2.51-16.89,1.65-5.44,4.11-10.66,7.31-15.54,11.52-20.65,38.14-32.36,63.98-32.53,6.57,0,13.01.76,19.2,2.21,12.36,2.91,23.7,8.64,32.99,16.82,13.94,12.27,21.61,28.58,21.61,45.93s-7.68,33.66-21.61,45.93c-13.94,12.27-32.47,19.03-52.18,19.03h0Zm0,.12c40.83,0,73.93-29.13,73.93-65.07,0-28.75-21.18-53.15-50.56-61.76-7.34-2.15-15.2-3.32-23.37-3.32-24.73-.69-45.8,11.03-59.67,26.64-4.48,5.39-8.05,11.41-10.49,17.87-2.44,6.46-3.77,13.38-3.77,20.57,0,35.94,33.1,65.07,73.93,65.07h0Z" fill="#fff" stroke-width="0"/><path d="m138.5,216.85c-20,0-38.8-6.86-52.95-19.3-14.14-12.45-21.93-29-21.93-46.6,0-5.87.87-11.62,2.54-17.14,1.68-5.52,4.17-10.81,7.42-15.76,12.46-19.2,37.97-33.84,64.91-33.01,6.67,0,13.2.77,19.48,2.24,12.54,2.95,24.04,8.77,33.47,17.07,14.14,12.45,21.93,29,21.93,46.6s-7.79,34.16-21.93,46.6c-14.14,12.45-32.95,19.3-52.95,19.3h0Zm0,.12c41.43,0,75.01-29.56,75.01-66.02,0-29.17-21.49-53.92-51.3-62.66-7.45-2.18-15.42-3.37-23.71-3.37-23.62-.71-46.91,10.03-60.54,27.03-4.55,5.47-8.16,11.57-10.64,18.13-2.48,6.56-3.82,13.58-3.82,20.87,0,36.46,33.58,66.02,75.01,66.02h0Z" fill="#fff" stroke-width="0"/><path d="m138.5,217.8c-20.29,0-39.36-6.95-53.71-19.58-14.35-12.63-22.25-29.42-22.25-47.28,0-5.95.88-11.79,2.58-17.39,1.7-5.6,4.23-10.97,7.52-15.99,13.4-19.7,38.9-34.34,65.85-33.49,6.77,0,13.39.78,19.76,2.28,12.73,3,24.39,8.89,33.96,17.31,14.35,12.63,22.25,29.42,22.25,47.28s-7.9,34.65-22.25,47.28c-14.35,12.63-33.42,19.58-53.71,19.58h0Zm0,.12c42.02,0,76.09-29.99,76.09-66.97,0-29.59-21.8-54.7-52.04-63.56-7.56-2.21-15.65-3.41-24.05-3.42-24.73-.74-48.02,10.98-61.41,27.42-4.61,5.55-8.28,11.74-10.8,18.39-2.52,6.65-3.88,13.77-3.88,21.17,0,36.99,34.07,66.97,76.09,66.97h0Z" fill="#fff" stroke-width="0"/><path d="m138.5,218.75c-20.58,0-39.92-7.05-54.47-19.86-14.55-12.81-22.56-29.84-22.56-47.95,0-6.04.89-11.95,2.62-17.63s4.29-11.12,7.63-16.22c12.12-20.2,39.84-34.84,66.79-33.96,6.86,0,13.59.79,20.04,2.31,12.91,3.04,24.74,9.02,34.44,17.56,14.55,12.81,22.56,29.84,22.56,47.95s-8.01,35.14-22.56,47.95c-14.55,12.81-33.9,19.86-54.47,19.86h0Zm0,.12c42.62,0,77.17-30.41,77.17-67.92,0-30.01-22.11-55.48-52.78-64.46-7.67-2.25-15.87-3.46-24.4-3.47-24.73-.76-46.91,11.93-62.28,27.81-4.68,5.63-8.4,11.91-10.95,18.65-2.55,6.75-3.93,13.97-3.93,21.47,0,37.51,34.55,67.92,77.17,67.92h0Z" fill="#fff" stroke-width="0"/><path d="m138.5,219.7c-20.87,0-40.48-7.15-55.24-20.14-14.75-12.99-22.88-30.25-22.88-48.62,0-6.12.9-12.12,2.65-17.88s4.35-11.28,7.74-16.44c14.16-20.7,39.67-35.34,67.72-34.44,6.96,0,13.78.8,20.32,2.34,13.09,3.08,25.08,9.15,34.92,17.8,14.75,12.99,22.88,30.25,22.88,48.62s-8.13,35.63-22.88,48.62c-14.75,12.99-34.37,20.14-55.24,20.14h0Zm0,.12c43.21,0,78.25-30.84,78.25-68.88,0-30.43-22.42-56.25-53.52-65.36-7.77-2.28-16.09-3.51-24.74-3.52-24.73-.79-49.13,10.93-63.15,28.2-4.74,5.71-8.51,12.07-11.1,18.91-2.59,6.84-3.99,14.16-3.99,21.77,0,38.04,35.03,68.88,78.25,68.88h0Z" fill="#fff" stroke-width="0"/><path d="m138.5,220.65c-21.15,0-41.04-7.25-56-20.42-14.96-13.17-23.2-30.67-23.2-49.29,0-6.21.92-12.29,2.69-18.13s4.41-11.44,7.84-16.67c13.99-21.2,39.49-35.84,68.66-34.91,7.06,0,13.97.81,20.6,2.37,13.27,3.12,25.43,9.27,35.4,18.05,14.96,13.17,23.2,30.67,23.2,49.29s-8.24,36.13-23.2,49.29c-14.96,13.17-34.85,20.42-56,20.42h0Zm0,.12c43.81,0,79.33-31.26,79.33-69.83,0-30.85-22.73-57.03-54.25-66.27-7.88-2.31-16.31-3.56-25.08-3.57-24.73-.81-50.23,10.9-64.02,28.59-4.81,5.78-8.63,12.24-11.26,19.18-2.62,6.94-4.04,14.36-4.04,22.07,0,38.56,35.52,69.83,79.33,69.83h0Z" fill="#fff" stroke-width="0"/><path d="m138.5,221.6c-21.44,0-41.6-7.35-56.76-20.7-15.16-13.35-23.51-31.09-23.51-49.96,0-6.29.93-12.46,2.73-18.38,1.8-5.92,4.47-11.59,7.95-16.9,13.81-21.7,41.54-36.35,69.59-35.39,7.15,0,14.16.82,20.88,2.41,13.45,3.17,25.78,9.4,35.89,18.3,15.16,13.35,23.51,31.09,23.51,49.96s-8.35,36.62-23.51,49.96c-15.16,13.35-35.32,20.7-56.76,20.7h0Zm0,.12c44.41,0,80.41-31.69,80.41-70.78,0-32.57-25-60.01-59.03-68.25-6.81-1.65-13.97-2.53-21.38-2.53-28.06.14-55.78,13.8-69.43,35.06-3.49,5.25-6.23,10.92-8.1,16.91-1.87,5.99-2.87,12.3-2.87,18.82,0,39.09,36,70.78,80.41,70.78h0Z" fill="#fff" stroke-width="0"/><path d="m138.5,222.55c-21.73,0-42.16-7.45-57.53-20.97-15.37-13.53-23.83-31.51-23.83-50.64,0-6.38.94-12.62,2.76-18.62,1.82-6,4.53-11.75,8.06-17.13,12.53-22.21,42.48-35.87,70.53-35.87,7.25,0,14.35.83,21.16,2.44,13.63,3.21,26.12,9.53,36.37,18.54,15.37,13.53,23.83,31.51,23.83,50.64s-8.46,37.11-23.83,50.64c-15.37,13.53-35.8,20.97-57.53,20.97h0Zm0,.12c45,0,81.49-32.11,81.49-71.73,0-33.01-25.34-60.81-59.82-69.16-6.9-1.67-14.16-2.56-21.67-2.57-28.06.11-56.89,13.78-70.36,35.53-3.53,5.32-6.32,11.06-8.21,17.14-1.9,6.07-2.91,12.47-2.91,19.07,0,39.61,36.48,71.73,81.49,71.73h0Z" fill="#fff" stroke-width="0"/><path d="m138.5,223.5c-22.02,0-42.72-7.55-58.29-21.25-15.57-13.7-24.14-31.93-24.14-51.31,0-6.46.95-12.79,2.8-18.87s4.59-11.9,8.16-17.35c14.58-22.71,42.3-36.37,71.47-36.34,7.34,0,14.54.84,21.44,2.47,13.81,3.25,26.47,9.65,36.85,18.79,15.57,13.7,24.14,31.93,24.14,51.31s-8.57,37.6-24.14,51.31c-15.57,13.7-36.27,21.25-58.29,21.25h0Zm0,.12c45.6,0,82.57-32.54,82.57-72.68,0-33.45-25.67-61.62-60.62-70.08-6.99-1.69-14.35-2.6-21.95-2.6-29.16.08-56.89,13.75-71.29,36-3.58,5.39-6.4,11.21-8.32,17.36-1.92,6.15-2.95,12.63-2.95,19.32,0,40.14,36.97,72.68,82.57,72.68h0Z" fill="#fff" stroke-width="0"/><path d="m138.5,224.45c-22.31,0-43.28-7.65-59.05-21.53-15.77-13.88-24.46-32.34-24.46-51.98,0-6.55.97-12.96,2.84-19.12,1.87-6.16,4.65-12.06,8.27-17.58,14.41-23.21,43.24-36.88,72.4-36.82,7.44,0,14.73.86,21.72,2.5,13.99,3.29,26.82,9.78,37.33,19.03,15.77,13.88,24.46,32.34,24.46,51.98s-8.69,38.1-24.46,51.98c-15.77,13.88-36.75,21.53-59.05,21.53h0Zm0,.12c46.2,0,83.65-32.96,83.65-73.63,0-33.89-26.01-62.43-61.41-71-7.08-1.71-14.54-2.63-22.24-2.64-30.27.06-56.89,14.7-72.22,36.47-3.63,5.46-6.48,11.36-8.43,17.59-1.95,6.23-2.99,12.8-2.99,19.57,0,40.66,37.45,73.63,83.65,73.63h0Z" fill="#fff" stroke-width="0"/><path d="m138.5,225.4c-22.6,0-43.84-7.75-59.82-21.81-15.98-14.06-24.78-32.76-24.78-52.65,0-6.63.98-13.13,2.87-19.36,1.9-6.24,4.71-12.22,8.38-17.81,15.34-22.73,43.07-37.38,73.34-37.29,7.54,0,14.92.87,22,2.54,14.17,3.34,27.16,9.9,37.82,19.28,15.98,14.06,24.78,32.76,24.78,52.65s-8.8,38.59-24.78,52.65c-15.98,14.06-37.22,21.81-59.82,21.81h0Zm0,.12c46.79,0,84.73-33.39,84.73-74.58,0-34.32-26.34-63.23-62.2-71.91-7.17-1.74-14.72-2.66-22.53-2.67-30.27.03-59.11,14.68-73.16,36.94-3.67,5.53-6.57,11.5-8.54,17.82-1.97,6.31-3.03,12.96-3.03,19.83,0,41.19,37.93,74.58,84.73,74.58h0Z" fill="#fff" stroke-width="0"/><path d="m138.5,226.35c-22.88,0-44.4-7.84-60.58-22.09-16.18-14.24-25.09-33.18-25.09-53.32,0-6.71.99-13.29,2.91-19.61s4.77-12.37,8.48-18.04c15.17-23.24,44-37.88,74.27-37.77,7.63,0,15.11.88,22.29,2.57,14.35,3.38,27.51,10.03,38.3,19.53,16.18,14.24,25.09,33.18,25.09,53.32s-8.91,39.08-25.09,53.32c-16.18,14.24-37.7,22.09-60.58,22.09h0Zm0,.12c47.39,0,85.81-33.81,85.81-75.53,0-34.76-26.68-64.04-62.99-72.83-7.26-1.76-14.91-2.7-22.82-2.7-31.38-.97-58,15.63-74.09,37.41-3.72,5.6-6.65,11.65-8.65,18.04-2,6.39-3.07,13.13-3.07,20.08,0,41.71,38.42,75.53,85.81,75.53h0Z" fill="#fff" stroke-width="0"/><path d="m138.5,227.3c-23.17,0-44.96-7.94-61.34-22.37-16.39-14.42-25.41-33.6-25.41-54,0-6.8,1-13.46,2.95-19.86s4.83-12.53,8.59-18.26c16.1-22.76,43.83-38.38,75.21-38.25,7.73,0,15.3.89,22.57,2.6,14.53,3.42,27.86,10.16,38.78,19.77,16.39,14.42,25.41,33.6,25.41,54s-9.02,39.57-25.41,54c-16.39,14.42-38.17,22.37-61.34,22.37h0Zm0,.12c47.99,0,86.88-34.24,86.88-76.48,0-35.2-27.01-64.84-63.79-73.75-7.35-1.78-15.1-2.73-23.1-2.74-30.27-.02-60.22,14.62-75.02,37.88-3.77,5.67-6.73,11.8-8.76,18.27-2.02,6.47-3.1,13.29-3.1,20.33,0,42.24,38.9,76.48,86.88,76.48h0Z" fill="#fff" stroke-width="0"/><path d="m138.5,228.25c-23.46,0-45.52-8.04-62.11-22.64-16.59-14.6-25.73-34.02-25.73-54.67,0-6.88,1.02-13.63,2.98-20.11s4.89-12.68,8.7-18.49c14.82-24.24,44.77-37.91,76.15-38.72,7.82,0,15.49.9,22.85,2.63,14.72,3.46,28.21,10.28,39.26,20.02,16.59,14.6,25.73,34.02,25.73,54.67s-9.14,40.07-25.73,54.67c-16.59,14.6-38.65,22.64-62.11,22.64h0Zm0,.12c48.58,0,87.96-34.67,87.96-77.43,0-35.64-27.35-65.65-64.58-74.66-7.45-1.8-15.29-2.77-23.39-2.77-31.38-.04-60.22,14.6-75.95,38.35-3.82,5.74-6.82,11.94-8.87,18.5-2.05,6.55-3.14,13.46-3.14,20.58,0,42.76,39.38,77.43,87.96,77.43h0Z" fill="#fff" stroke-width="0"/><path d="m138.5,229.2c-23.75,0-46.08-8.14-62.87-22.92-16.79-14.78-26.04-34.44-26.04-55.34,0-10.45,2.31-20.59,6.72-29.97,2.21-4.69,4.94-9.18,8.16-13.44,16.03-22.36,44.86-34.08,74.02-34.87,5.94,0,11.79.51,17.49,1.51,17.09,2.98,32.79,10.33,45.39,21.42,16.79,14.78,26.04,34.44,26.04,55.34s-9.25,40.56-26.04,55.34c-16.79,14.78-39.12,22.92-62.87,22.92h0Zm0,.12c49.18,0,89.04-35.09,89.04-78.38,0-36.07-27.69-66.45-65.37-75.58-7.54-1.83-15.48-2.8-23.68-2.81-31.38-.07-61.32,15.55-76.88,38.82-3.86,5.81-6.9,12.09-8.97,18.73-2.07,6.63-3.18,13.62-3.18,20.84,0,43.29,39.87,78.38,89.04,78.38h0Z" fill="#fff" stroke-width="0"/><path d="m138.5,230.15c-24.04,0-46.64-8.24-63.63-23.2-17-14.96-26.36-34.85-26.36-56.01,0-10.58,2.34-20.84,6.81-30.33,2.23-4.74,5-9.29,8.26-13.6,16.92-22.81,45.76-34.53,74.92-35.29,6.01,0,11.93.52,17.7,1.53,17.29,3.02,33.19,10.46,45.94,21.68,17,14.96,26.36,34.85,26.36,56.01s-9.36,41.05-26.36,56.01c-17,14.96-39.6,23.2-63.63,23.2h0Zm0,.12c49.77,0,90.12-35.52,90.12-79.33,0-36.51-28.02-67.26-66.17-76.5-7.63-1.85-15.66-2.83-23.96-2.84-31.38-.1-61.32,15.52-77.82,39.29-3.91,5.88-6.98,12.24-9.08,18.95-2.1,6.72-3.22,13.79-3.22,21.09,0,43.81,40.35,79.33,90.12,79.33h0Z" fill="#fff" stroke-width="0"/><path d="m138.5,231.1c-24.33,0-47.2-8.34-64.4-23.48-17.2-15.14-26.67-35.27-26.67-56.68,0-10.71,2.37-21.09,6.89-30.69,2.26-4.8,5.06-9.41,8.36-13.76,15.6-23.26,45.55-34.98,75.82-35.71,6.08,0,12.08.53,17.91,1.54,17.5,3.05,33.59,10.58,46.49,21.94,17.2,15.14,26.67,35.27,26.67,56.68s-9.47,41.54-26.67,56.68-40.07,23.48-64.4,23.48h0Zm0,.12c50.37,0,91.2-35.94,91.2-80.28,0-36.95-28.36-68.07-66.96-77.41-7.72-1.87-15.85-2.87-24.25-2.87-32.49-.12-63.54,15.5-78.75,39.76-3.96,5.95-7.07,12.38-9.19,19.18-2.12,6.8-3.26,13.95-3.26,21.34,0,44.34,40.83,80.28,91.2,80.28h0Z" fill="#fff" stroke-width="0"/><path d="m138.5,232.05c-24.61,0-47.76-8.44-65.16-23.76-17.41-15.32-26.99-35.69-26.99-57.36,0-10.83,2.4-21.34,6.97-31.06,2.29-4.86,5.12-9.52,8.46-13.92,17.61-21.76,45.34-36.4,76.72-36.14,6.16,0,12.22.53,18.12,1.56,17.71,3.09,33.99,10.71,47.04,22.2,17.41,15.32,26.99,35.69,26.99,57.36s-9.59,42.04-26.99,57.36c-17.41,15.32-40.55,23.76-65.16,23.76h0Zm0,.12c50.97,0,92.28-36.37,92.28-81.23,0-37.39-28.69-68.87-67.75-78.33-7.81-1.89-16.04-2.9-24.54-2.91-33.6-.15-62.43,16.45-79.68,40.24-4,6.02-7.15,12.53-9.3,19.41-2.15,6.88-3.3,14.12-3.3,21.59,0,44.86,41.32,81.23,92.28,81.23h0Z" fill="#fff" stroke-width="0"/><path d="m138.5,233c-12.59,0-24.8-2.17-36.29-6.45-11.1-4.13-21.07-10.05-29.63-17.59-8.56-7.54-15.28-16.31-19.98-26.09-4.86-10.12-7.33-20.86-7.33-31.94s2.46-21.83,7.33-31.94c2.35-4.89,5.2-9.52,8.54-13.89,17.15-22.87,47.09-36.53,77.36-36.24,6.3,0,12.5.55,18.56,1.63s11.99,2.69,17.74,4.83c11.1,4.13,21.07,10.05,29.63,17.59,8.56,7.54,15.28,16.31,19.98,26.09,4.86,10.12,7.33,20.86,7.33,31.94s-2.46,21.83-7.33,31.94c-4.7,9.77-11.42,18.55-19.98,26.09-8.56,7.54-18.53,13.45-29.63,17.59-11.49,4.28-23.7,6.45-36.29,6.45h0Zm0,.12c51.56,0,93.36-36.79,93.36-82.18,0-37.82-29.03-69.68-68.54-79.24-7.9-1.91-16.23-2.94-24.82-2.94-32.49.8-64.65,15.45-80.61,40.71-4.05,6.09-7.24,12.68-9.41,19.63-2.17,6.96-3.34,14.28-3.34,21.85,0,45.39,41.8,82.18,93.36,82.18h0Z" fill="#fff" stroke-width="0"/><path d="m138.5,233.95c-12.73,0-25.08-2.19-36.71-6.52-11.23-4.18-21.32-10.17-29.98-17.79-8.66-7.62-15.46-16.5-20.21-26.39-4.92-10.23-7.41-21.11-7.41-32.31s2.49-22.08,7.41-32.31c2.38-4.94,5.26-9.63,8.64-14.05,16.93-23.31,47.99-36,78.26-36.66,6.37,0,12.64.55,18.77,1.64,6.13,1.09,12.13,2.72,17.94,4.89,11.23,4.18,21.32,10.17,29.98,17.79,8.66,7.62,15.46,16.5,20.21,26.39,4.92,10.23,7.41,21.11,7.41,32.31s-2.49,22.08-7.41,32.31c-4.75,9.89-11.55,18.76-20.21,26.39-8.66,7.62-18.75,13.61-29.98,17.79-11.63,4.33-23.98,6.52-36.71,6.52h0Zm0,.12c52.16,0,94.44-37.22,94.44-83.13,0-38.26-29.36-70.48-69.34-80.16-7.99-1.94-16.41-2.97-25.11-2.98-32.49-.2-64.65,16.4-81.55,41.18-4.1,6.16-7.32,12.82-9.52,19.86-2.2,7.04-3.37,14.45-3.37,22.1,0,45.91,42.28,83.13,94.44,83.13h0Z" fill="#fff" stroke-width="0"/><path d="m138.5,234.9c-12.88,0-25.37-2.22-37.13-6.6-11.36-4.23-21.56-10.28-30.32-17.99-8.76-7.71-15.64-16.69-20.44-26.69-4.97-10.35-7.5-21.35-7.5-32.68s2.52-22.33,7.5-32.68c2.4-5,5.32-9.74,8.74-14.21,17.83-22.78,47.77-37.42,79.16-37.08,6.44,0,12.78.56,18.99,1.66,6.2,1.1,12.27,2.75,18.15,4.94,11.36,4.23,21.56,10.28,30.32,17.99,8.76,7.71,15.64,16.69,20.44,26.69,4.97,10.35,7.5,21.35,7.5,32.68s-2.52,22.33-7.5,32.68c-4.8,10-11.68,18.98-20.44,26.69-8.76,7.71-18.96,13.77-30.32,17.99-11.76,4.38-24.25,6.6-37.13,6.6h0Zm0,.12c52.76,0,95.52-37.64,95.52-84.08,0-38.7-29.7-71.29-70.13-81.08-8.09-1.96-16.6-3-25.4-3.01-33.6-.22-66.87,15.39-82.48,41.65-4.14,6.23-7.4,12.97-9.63,20.09-2.22,7.12-3.41,14.61-3.41,22.35,0,46.44,42.77,84.08,95.52,84.08h0Z" fill="#fff" stroke-width="0"/><path d="m138.5,235.85c-13.02,0-25.66-2.25-37.55-6.67-11.49-4.28-21.8-10.4-30.66-18.2-8.86-7.8-15.82-16.88-20.67-26.99-5.03-10.47-7.58-21.59-7.58-33.05s2.55-22.58,7.58-33.05c2.43-5.06,5.38-9.85,8.83-14.37,17.62-23.23,47.56-36.89,80.05-37.5,6.51,0,12.93.57,19.2,1.68,6.27,1.11,12.4,2.78,18.35,5,11.49,4.28,21.8,10.4,30.66,18.2,8.86,7.8,15.82,16.88,20.67,26.99,5.03,10.47,7.58,21.59,7.58,33.05s-2.55,22.58-7.58,33.05c-4.86,10.11-11.81,19.19-20.67,26.99-8.86,7.8-19.18,13.92-30.66,18.2-11.89,4.43-24.53,6.67-37.55,6.67h0Zm0,.12c53.35,0,96.6-38.07,96.6-85.03,0-39.13-30.03-72.09-70.92-81.99-8.18-1.98-16.79-3.04-25.68-3.04-34.71-1.23-65.76,17.32-83.41,42.12-4.19,6.3-7.49,13.12-9.74,20.31-2.25,7.2-3.45,14.78-3.45,22.6,0,46.96,43.25,85.03,96.6,85.03h0Z" fill="#fff" stroke-width="0"/><path d="m138.5,236.8c-13.17,0-25.94-2.27-37.97-6.75-11.62-4.32-22.05-10.52-31.01-18.4-8.96-7.89-15.99-17.07-20.91-27.29-5.09-10.59-7.67-21.83-7.67-33.42s2.58-22.84,7.67-33.42c2.46-5.11,5.44-9.96,8.93-14.53,17.4-23.67,48.46-37.34,80.95-37.92,6.59,0,13.07.57,19.42,1.7,6.34,1.13,12.54,2.81,18.56,5.05,11.62,4.32,22.05,10.52,31.01,18.4,8.96,7.89,15.99,17.07,20.91,27.29,5.09,10.59,7.67,21.83,7.67,33.42s-2.58,22.84-7.67,33.42c-4.91,10.22-11.95,19.41-20.91,27.29-8.96,7.89-19.39,14.08-31.01,18.4-12.03,4.48-24.8,6.75-37.97,6.75h0Zm0,.12c53.95,0,97.68-38.5,97.68-85.98,0-39.57-30.37-72.9-71.71-82.91-8.27-2-16.98-3.07-25.97-3.08-34.71-.28-66.87,17.29-84.34,42.59-4.24,6.37-7.57,13.26-9.85,20.54-2.27,7.28-3.49,14.94-3.49,22.86,0,47.49,43.73,85.98,97.68,85.98h0Z" fill="#fff" stroke-width="0"/><path d="m138.5,237.76c-13.31,0-26.23-2.3-38.39-6.82-11.74-4.37-22.29-10.63-31.35-18.61-9.06-7.97-16.17-17.26-21.14-27.6-5.14-10.7-7.75-22.07-7.75-33.79s2.61-23.09,7.75-33.79c2.48-5.17,5.5-10.07,9.03-14.69,18.3-23.14,49.35-37.78,81.84-38.34,6.66,0,13.22.58,19.63,1.72,6.41,1.14,12.68,2.85,18.76,5.11,11.74,4.37,22.29,10.63,31.35,18.61,9.06,7.97,16.17,17.26,21.14,27.6,5.14,10.7,7.75,22.07,7.75,33.79s-2.61,23.09-7.75,33.79c-4.97,10.34-12.08,19.62-21.14,27.6-9.06,7.97-19.61,14.23-31.35,18.61-12.16,4.53-25.08,6.82-38.39,6.82h0Zm0,.12c54.54,0,98.76-38.92,98.76-86.93,0-41.15-32.49-75.63-76.12-84.64-7.27-1.5-14.85-2.3-22.65-2.3-36.93.67-72.42,19.22-88.72,48.71-3.21,5.77-5.72,11.9-7.43,18.3-1.71,6.4-2.61,13.07-2.61,19.93,0,48.01,44.22,86.93,98.76,86.93h0Z" fill="#fff" stroke-width="0"/><path d="m138.5,238.71c-13.46,0-26.52-2.32-38.81-6.9-11.87-4.42-22.54-10.75-31.69-18.81-9.16-8.06-16.35-17.45-21.37-27.9-5.2-10.82-7.84-22.31-7.84-34.16s2.64-23.34,7.84-34.16c2.51-5.23,5.56-10.18,9.13-14.85,18.09-24.56,50.25-38.23,82.74-38.76,6.73,0,13.36.58,19.85,1.74,6.48,1.15,12.82,2.88,18.97,5.16,11.87,4.42,22.54,10.75,31.69,18.81,9.16,8.06,16.35,17.45,21.37,27.9,5.2,10.82,7.84,22.31,7.84,34.16s-2.64,23.34-7.84,34.16c-5.02,10.45-12.21,19.84-21.37,27.9-9.16,8.06-19.82,14.39-31.69,18.81-12.29,4.58-25.35,6.9-38.81,6.9h0Zm0,.12c55.14,0,99.84-39.35,99.84-87.88,0-41.6-32.84-76.45-76.95-85.56-7.35-1.52-15.02-2.32-22.9-2.33-38.04.65-73.52,19.19-89.69,49.24-3.25,5.83-5.79,12.03-7.51,18.5-1.72,6.47-2.64,13.22-2.64,20.15,0,48.54,44.7,87.88,99.84,87.88h0Z" fill="#fff" stroke-width="0"/><path d="m138.5,239.66c-13.61,0-26.81-2.35-39.23-6.97-12-4.47-22.78-10.87-32.04-19.01-9.26-8.15-16.52-17.64-21.6-28.2-5.26-10.94-7.92-22.56-7.92-34.53s2.66-23.6,7.92-34.53c2.54-5.28,5.62-10.3,9.23-15.01,17.87-25.01,51.14-38.67,83.64-39.18,6.81,0,13.51.59,20.06,1.76,6.55,1.16,12.96,2.91,19.17,5.22,12,4.47,22.78,10.87,32.04,19.01,9.26,8.15,16.52,17.64,21.6,28.2,5.26,10.94,7.92,22.56,7.92,34.53s-2.66,23.6-7.92,34.53c-5.08,10.56-12.34,20.05-21.6,28.2-9.26,8.15-20.04,14.54-32.04,19.01-12.43,4.63-25.63,6.97-39.23,6.97h0Zm0,.12c55.74,0,100.92-39.77,100.92-88.83,0-42.05-33.2-77.28-77.78-86.49-7.43-1.53-15.18-2.35-23.14-2.35-38.04.62-74.63,19.17-90.66,49.77-3.28,5.89-5.85,12.16-7.59,18.7-1.74,6.54-2.67,13.36-2.67,20.37,0,49.06,45.18,88.83,100.92,88.83h0Z" fill="#fff" stroke-width="0"/><path d="m138.5,240.61c-13.75,0-27.09-2.37-39.65-7.05-12.13-4.52-23.02-10.98-32.38-19.22-9.36-8.23-16.7-17.82-21.83-28.5-5.31-11.05-8.01-22.8-8.01-34.9s2.69-23.85,8.01-34.9c2.57-5.34,5.68-10.41,9.33-15.17,18.77-23.5,50.93-40.1,84.53-39.6,6.88,0,13.65.6,20.28,1.77,6.62,1.18,13.1,2.94,19.38,5.28,12.13,4.52,23.02,10.98,32.38,19.22,9.36,8.23,16.7,17.82,21.83,28.5,5.31,11.05,8.01,22.8,8.01,34.9s-2.69,23.85-8.01,34.9c-5.13,10.68-12.48,20.27-21.83,28.5-9.36,8.23-20.25,14.7-32.38,19.22-12.56,4.68-25.9,7.05-39.65,7.05h0Zm0,.12c56.33,0,102-40.2,102-89.78,0-42.5-33.55-78.11-78.61-87.41-7.51-1.55-15.34-2.37-23.39-2.38-38.04.59-74.63,20.12-91.63,50.3-3.32,5.96-5.91,12.29-7.67,18.9-1.76,6.61-2.69,13.5-2.69,20.59,0,49.59,45.67,89.78,102,89.78h0Z" fill="#fff" stroke-width="0"/><path d="m138.5,241.56c-13.9,0-27.38-2.4-40.07-7.12-12.26-4.56-23.27-11.1-32.72-19.42-9.45-8.32-16.88-18.01-22.06-28.8-5.37-11.17-8.09-23.04-8.09-35.27s2.72-24.1,8.09-35.27c2.59-5.4,5.74-10.52,9.43-15.33,18.56-23.95,50.72-41.52,85.43-40.02,6.95,0,13.8.6,20.49,1.79,6.69,1.19,13.24,2.97,19.58,5.33,12.26,4.56,23.27,11.1,32.72,19.42,9.45,8.32,16.88,18.01,22.06,28.8,5.37,11.17,8.09,23.04,8.09,35.27s-2.72,24.1-8.09,35.27c-5.19,10.79-12.61,20.48-22.06,28.8-9.45,8.32-20.46,14.86-32.72,19.42-12.69,4.73-26.17,7.12-40.07,7.12h0Zm0,.12c56.93,0,103.08-40.62,103.08-90.73,0-42.95-33.91-78.93-79.44-88.34-7.59-1.57-15.5-2.4-23.64-2.4-30.27.57-61.33,12.28-80.44,33.98-4.72,5.19-8.81,10.83-12.16,16.86-6.71,12.04-10.48,25.58-10.48,39.9,0,50.11,46.15,90.73,103.08,90.73h0Z" fill="#fff" stroke-width="0"/></g></g><path d="m80.95,267.93l-8.5-4.93-2.31-19.3-.26-.15-7.79,13.45-8.5-4.93,14.98-25.86,8.5,4.93,2.53,18.84.29.17,7.53-13,8.5,4.93-14.98,25.86Z" stroke-width="0"/><path d="m44.27,232.74l2.24-2.17-11.22-11.58,5.67-5.5,11.22,11.58,2.27-2.2-11.22-11.58,5.64-5.47,18.06,18.64-21.46,20.8-18.06-18.63,5.64-5.47,11.22,11.58Z" stroke-width="0"/><path d="m23.4,205.74l2.74-1.48-7.66-14.2,6.95-3.75,7.66,14.2,2.78-1.5-7.66-14.2,6.91-3.73,12.33,22.85-26.3,14.2-12.33-22.85,6.91-3.73,7.66,14.2Z" stroke-width="0"/><path d="m13.84,150.66c9.68-1.65,16.33,5.61,17.37,11.7l2.94,17.27-29.46,5.02-3-17.6c-1.21-7.12,3.14-14.85,12.15-16.39Zm1.62,9.78c-4.75.81-6.19,4.08-5.43,8.55l.79,4.64,13.89-2.37-.85-4.97c-.69-4.06-3.98-6.61-8.4-5.85Z" stroke-width="0"/><path d="m25.68,121.3l7.8,1.25-3.97,24.8-29.51-4.72,1.55-9.71,21.71,3.47,2.42-15.1Z" stroke-width="0"/><path d="m18.5,103l2.79,1.39,7.19-14.43,7.07,3.52-7.19,14.43,2.83,1.41,7.19-14.43,7.03,3.5-11.58,23.23-26.75-13.32,11.58-23.23,7.03,3.5-7.19,14.43Z" stroke-width="0"/><path d="m43.39,77.1c-5.37-6.59-4.44-16.21,2.04-21.5,6.48-5.28,16.09-4.25,21.46,2.33,5.39,6.62,4.47,16.25-2.01,21.53-6.48,5.28-16.09,4.25-21.49-2.37Zm15.95-13.01c-1.92-2.35-5.37-2.73-7.68-.84-2.31,1.88-2.63,5.34-.72,7.69,1.94,2.38,5.39,2.76,7.71.88,2.31-1.88,2.63-5.34.69-7.73Z" stroke-width="0"/><path d="m66.17,41.22l9.11-3.69,16.66,10.01.27-.11-5.84-14.4,9.11-3.69,11.24,27.69-9.11,3.69-16.43-9.55-.31.13,5.65,13.93-9.11,3.69-11.23-27.69Z" stroke-width="0"/><path d="m190.94,43.23l-7.96-3.6,3.25-7.2,24.88,11.26-3.25,7.2-7.96-3.6-9.06,20.03-8.96-4.05,9.06-20.03Z" stroke-width="0"/><path d="m243.1,68.08l-18.99,23.08-7.59-6.24,7-8.51-9.12-7.5-7,8.51-7.59-6.24,18.99-23.08,7.59,6.25-6.97,8.47,9.12,7.5,6.97-8.47,7.59,6.24Z" stroke-width="0"/><path d="m249.16,88.92l-2.58,1.74,9.03,13.37-6.55,4.42-9.03-13.37-2.62,1.77,9.03,13.37-6.51,4.4-14.53-21.51,24.77-16.72,14.53,21.51-6.51,4.4-9.03-13.37Z" stroke-width="0"/><path d="m258.42,138.76l-.74-4.56-10.92,1.77-1.57-9.7,29.5-4.78,3.32,20.52c.95,5.89-1.93,10.01-7.83,10.97-3.92.63-7.5-1.42-9.44-4.64l-10.55,8.86-1.7-10.53,9.92-7.9Zm6.98-5.81l1.46,9c.15.91.89,1.47,1.86,1.32,1.05-.17,1.41-.91,1.26-1.82l-1.45-9-3.12.5Z" stroke-width="0"/><path d="m269.59,171.71l-3.07-.55-2.83,15.88-7.78-1.38,2.83-15.88-3.11-.55-2.83,15.88-7.74-1.38,4.55-25.55,29.43,5.24-4.55,25.55-7.73-1.38,2.83-15.88Z" stroke-width="0"/><path d="m257.92,191.72c7.53,3.93,10.48,13.15,6.61,20.56-2,3.84-5.42,6.41-9.27,7.53l-3.08-9.33c1.53-.34,2.85-1.31,3.61-2.76,1.38-2.64.31-5.95-2.38-7.35-2.73-1.42-6.05-.41-7.43,2.24-.74,1.42-.77,3.05-.2,4.45l-9.41,2.91c-1.29-3.8-1.11-8.12.87-11.91,3.87-7.41,13.11-10.26,20.67-6.31Z" stroke-width="0"/><path d="m244.18,217.51c6.09,5.92,6.27,15.59.44,21.58-5.83,5.99-15.5,6.07-21.59.15-6.12-5.96-6.3-15.62-.48-21.62,5.83-5.99,15.5-6.07,21.62-.12Zm-14.35,14.75c2.17,2.11,5.65,2.09,7.73-.04,2.08-2.14,2-5.61-.17-7.72-2.2-2.14-5.68-2.12-7.76.01-2.08,2.14-2,5.61.2,7.75Z" stroke-width="0"/><path d="m203.85,246.04l4.06-2.2-5.26-9.73,8.64-4.68,14.21,26.29-18.29,9.89c-5.25,2.84-10.09,1.48-12.93-3.78-1.89-3.49-1.12-7.55,1.28-10.45l-11.83-7.05,9.38-5.08,10.72,6.77Zm7.78,4.67l-8.02,4.34c-.81.44-1.1,1.32-.63,2.19.51.94,1.32,1.03,2.13.59l8.02-4.34-1.5-2.78Z" stroke-width="0"/><path d="m154.71,265.94c-2.03-9.61,4.97-16.54,11.01-17.82l17.14-3.62,6.17,29.24-17.46,3.69c-7.07,1.49-14.96-2.56-16.85-11.5Zm9.71-2.01c1,4.72,4.32,6.03,8.76,5.09l4.6-.97-2.91-13.79-4.93,1.04c-4.03.85-6.45,4.24-5.52,8.63Z" stroke-width="0"/></g></svg>